<?xml version="1.0" encoding="UTF-8" standalone="no"?>
<!-- Created with Inkscape (http://www.inkscape.org/) -->

<svg xmlns:osb="http://www.openswatchbook.org/uri/2009/osb" xmlns:dc="http://purl.org/dc/elements/1.1/" xmlns:cc="http://creativecommons.org/ns#" xmlns:rdf="http://www.w3.org/1999/02/22-rdf-syntax-ns#" xmlns:svg="http://www.w3.org/2000/svg" xmlns="http://www.w3.org/2000/svg" xmlns:xlink="http://www.w3.org/1999/xlink" xmlns:sodipodi="http://sodipodi.sourceforge.net/DTD/sodipodi-0.dtd" xmlns:inkscape="http://www.inkscape.org/namespaces/inkscape" width="875.58966" height="392.8905" id="svg2" version="1.1" inkscape:version="0.3 r12068 custom" sodipodi:docname="Vector.svg" inkscape:export-filename="/home/dasprid/Bilder/Vector/Resources/Rubber Duck/Export.png" inkscape:export-xdpi="1374.4795" inkscape:export-ydpi="1374.4795">
    <defs id="defs4">
        <inkscape:path-effect effect="fill_between_strokes" linkedpath="#path7267" secondpath="#path7269" id="path-effect7324" is_visible="true" reversesecond="false" />
        <inkscape:path-effect effect="ellipse_5pts" id="path-effect7313" is_visible="true" />
        <inkscape:path-effect effect="ellipse_5pts" id="path-effect7303" is_visible="true" />
        <inkscape:path-effect effect="ellipse_5pts" id="path-effect7299" is_visible="true" />
        <inkscape:path-effect effect="ellipse_5pts" id="path-effect7291" is_visible="true" />
        <inkscape:path-effect effect="powerstroke" id="path-effect7279" is_visible="true" offset_points="0,2.5" sort_points="true" interpolator_type="CubicBezierSmooth" interpolator_beta="0.2" start_linecap_type="butt" linejoin_type="extrapolated" miter_limit="20" end_linecap_type="zerowidth" />
        <inkscape:path-effect effect="powerstroke" id="path-effect7273" is_visible="true" offset_points="0.2,3.5 | 1,3.5 | 1.8,3.5" sort_points="true" interpolator_type="CubicBezierSmooth" interpolator_beta="0.2" start_linecap_type="butt" linejoin_type="extrapolated" miter_limit="20" end_linecap_type="zerowidth" />
        <inkscape:path-effect effect="powerstroke" id="path-effect7271" is_visible="true" offset_points="0.25,3.5 | 2.5,3.5 | 4.9,3.5" sort_points="false" interpolator_type="CubicBezierSmooth" interpolator_beta="0.2" start_linecap_type="zerowidth" linejoin_type="extrapolated" miter_limit="20" end_linecap_type="zerowidth" />
        <inkscape:path-effect effect="powerstroke" id="path-effect7265" is_visible="true" offset_points="0.3,3.5 | 1.5,3.5 | 2.8,3.5" sort_points="true" interpolator_type="CubicBezierSmooth" interpolator_beta="0.2" start_linecap_type="zerowidth" linejoin_type="extrapolated" miter_limit="20" end_linecap_type="butt" />
        <inkscape:path-effect effect="powerstroke" id="path-effect7263" is_visible="true" offset_points="0.3,3.5 | 0.8,3.5" sort_points="true" interpolator_type="CubicBezierSmooth" interpolator_beta="0.2" start_linecap_type="zerowidth" linejoin_type="extrapolated" miter_limit="20" end_linecap_type="round" />
        <g id="page0" inkscape:label="Rubber Duck">
            <linearGradient id="linearGradient7329" osb:paint="solid" inkscape:label="Body Stroke">
                <stop style="stop-color:#f6bb48;stop-opacity:1.000000;" offset="0" id="stop7331" />
            </linearGradient>
            <linearGradient osb:paint="solid" id="linearGradient7295" inkscape:label="Body Fill">
                <stop style="stop-color:#ffdc5e;stop-opacity:1.000000;" offset="0" id="stop7297" />
            </linearGradient>
            <linearGradient osb:paint="solid" id="linearGradient7341" inkscape:label="Feet Stroke">
                <stop style="stop-color:#e47a20;stop-opacity:1.000000;" offset="0" id="stop7343" />
            </linearGradient>
            <linearGradient osb:paint="solid" id="linearGradient7301" inkscape:label="Feet Fill">
                <stop style="stop-color:#f4a232;stop-opacity:1.000000;" offset="0" id="stop7303" />
            </linearGradient>
            <linearGradient osb:paint="solid" id="linearGradient7313" inkscape:label="Comb Stroke">
                <stop style="stop-color:#e63334;stop-opacity:1.000000;" offset="0" id="stop7315" />
            </linearGradient>
            <linearGradient osb:paint="solid" id="linearGradient7307" inkscape:label="Comb Fill">
                <stop style="stop-color:#fb5346;stop-opacity:1.000000;" offset="0" id="stop7309" />
            </linearGradient>
            <linearGradient id="linearGradient7349" osb:paint="solid" inkscape:label="Eye Stroke">
                <stop style="stop-color:#b9b6f6;stop-opacity:1.000000;" offset="0" id="stop7351" />
            </linearGradient>
            <linearGradient osb:paint="solid" id="linearGradient7359" inkscape:label="Black">
                <stop style="stop-color:#000000;stop-opacity:1;" offset="0" id="stop7361" />
            </linearGradient>
            <linearGradient osb:paint="solid" id="linearGradient7229" inkscape:label="White">
                <stop style="stop-color:#ffffff;stop-opacity:1.000000;" offset="0" id="stop7231" />
            </linearGradient>
        </g>
        <linearGradient id="linearGradient7319">
            <stop style="stop-color:#f1ba46;stop-opacity:1.000000;" offset="0" id="stop7321" />
        </linearGradient>
        <linearGradient id="linearGradient7365">
            <stop id="stop7367" offset="0" style="stop-color:#000000;stop-opacity:1;" />
        </linearGradient>
        <linearGradient inkscape:collect="always" xlink:href="#linearGradient7359" id="linearGradient7293" x1="509.2196" y1="549.37299" x2="523.98077" y2="549.37299" gradientUnits="userSpaceOnUse" />
        <linearGradient inkscape:collect="always" xlink:href="#linearGradient7349" id="linearGradient7309" x1="497.92914" y1="542.14648" x2="548.25403" y2="542.14648" gradientUnits="userSpaceOnUse" />
        <linearGradient inkscape:collect="always" xlink:href="#linearGradient7229" id="linearGradient7311" x1="497.92914" y1="542.14648" x2="548.25403" y2="542.14648" gradientUnits="userSpaceOnUse" />
        <linearGradient inkscape:collect="always" xlink:href="#linearGradient7313" id="linearGradient7320" x1="540.71655" y1="577.31726" x2="704.87689" y2="577.31726" gradientUnits="userSpaceOnUse" />
        <linearGradient inkscape:collect="always" xlink:href="#linearGradient7307" id="linearGradient7322" x1="540.71655" y1="577.31726" x2="704.87689" y2="577.31726" gradientUnits="userSpaceOnUse" />
        <linearGradient inkscape:collect="always" xlink:href="#linearGradient7295" id="linearGradient7328" x1="404.27002" y1="558.64154" x2="567.70386" y2="558.64154" gradientUnits="userSpaceOnUse" />
        <linearGradient inkscape:collect="always" xlink:href="#linearGradient7329" id="linearGradient7330" x1="400.76978" y1="567.17346" x2="496.07144" y2="567.17346" gradientUnits="userSpaceOnUse" />
        <linearGradient inkscape:collect="always" xlink:href="#linearGradient7329" id="linearGradient7332" x1="482.23648" y1="530.41339" x2="571.20447" y2="530.41339" gradientUnits="userSpaceOnUse" />
        <linearGradient inkscape:collect="always" xlink:href="#linearGradient7329" id="linearGradient7334" x1="237.67857" y1="412.14606" x2="302.33481" y2="412.14606" gradientUnits="userSpaceOnUse" />
        <linearGradient inkscape:collect="always" xlink:href="#linearGradient7329" id="linearGradient7336" x1="197.99306" y1="400.7771" x2="315.53253" y2="400.7771" gradientUnits="userSpaceOnUse" />
        <linearGradient inkscape:collect="always" xlink:href="#linearGradient7329" id="linearGradient7338" x1="98.38092" y1="456.15942" x2="114.26881" y2="456.15942" gradientUnits="userSpaceOnUse" />
        <linearGradient inkscape:collect="always" xlink:href="#linearGradient7329" id="linearGradient7340" x1="112.46712" y1="286.31342" x2="199.06624" y2="286.31342" gradientUnits="userSpaceOnUse" />
        <linearGradient inkscape:collect="always" xlink:href="#linearGradient7329" id="linearGradient7342" x1="41.371021" y1="365.12732" x2="86.728737" y2="365.12732" gradientUnits="userSpaceOnUse" />
        <linearGradient inkscape:collect="always" xlink:href="#linearGradient7295" id="linearGradient7344" x1="112.46712" y1="286.31342" x2="199.06624" y2="286.31342" gradientUnits="userSpaceOnUse" />
        <linearGradient inkscape:collect="always" xlink:href="#linearGradient7295" id="linearGradient7346" x1="41.371021" y1="365.12732" x2="86.728737" y2="365.12732" gradientUnits="userSpaceOnUse" />
        <linearGradient inkscape:collect="always" xlink:href="#linearGradient7329" id="linearGradient7348" x1="58.117634" y1="415.31351" x2="522.5647" y2="415.31351" gradientUnits="userSpaceOnUse" />
        <linearGradient inkscape:collect="always" xlink:href="#linearGradient7295" id="linearGradient7350" x1="58.117634" y1="415.31351" x2="522.5647" y2="415.31351" gradientUnits="userSpaceOnUse" />
        <linearGradient inkscape:collect="always" xlink:href="#linearGradient7301" id="linearGradient7360" x1="-170.71274" y1="356.96466" x2="56.95232" y2="356.96466" gradientUnits="userSpaceOnUse" />
        <linearGradient inkscape:collect="always" xlink:href="#linearGradient7341" id="linearGradient7362" x1="-170.71274" y1="356.96466" x2="56.95232" y2="356.96466" gradientUnits="userSpaceOnUse" />
    </defs>
    <sodipodi:namedview id="base" pagecolor="#ffffff" bordercolor="#666666" borderopacity="1.0" inkscape:pageopacity="0.0" inkscape:pageshadow="2" inkscape:zoom="0.7" inkscape:cx="110.87893" inkscape:cy="224.91477" inkscape:document-units="px" inkscape:current-layer="layer2" showgrid="false" inkscape:window-width="2560" inkscape:window-height="1544" inkscape:window-x="0" inkscape:window-y="27" inkscape:window-maximized="1" fit-margin-top="0" fit-margin-left="0" fit-margin-right="0" fit-margin-bottom="0" />
    <metadata id="metadata7">
        <rdf:RDF>
            <cc:Work rdf:about="">
                <dc:format>image/svg+xml</dc:format>
                <dc:type rdf:resource="http://purl.org/dc/dcmitype/StillImage" />
                <dc:title></dc:title>
            </cc:Work>
        </rdf:RDF>
    </metadata>
    <g inkscape:groupmode="layer" id="layer2" inkscape:label="Rubber Duck" inkscape:expanded="true" style="display:inline" transform="translate(170.71274,-257.04403)">
        <path style="fill:url(#linearGradient7360);fill-opacity:1;stroke:url(#linearGradient7362);stroke-width:7;stroke-linecap:butt;stroke-linejoin:miter;stroke-miterlimit:4;stroke-opacity:1;stroke-dasharray:none" d="m 46.25,352.8979 c -34.335798,-13.67068 -65.777618,-21.29976 -98.214286,-25 2.138974,49.5614 -6.522207,72.94126 -22.321428,79.10714 -30.721456,11.9895 -22.463726,-3.0419 -7.142857,-20.17858 11.768811,-13.16364 11.427925,-23.77968 12.321428,-35.71428 -14.121741,19.92195 -33.207457,40.14135 -51.428567,46.07143 -25.49455,8.29724 -28.24456,-12.94769 8.03571,-30.71429 14.592106,-7.14582 22.13064,-17.31043 24.107143,-24.46428 -22.111833,12.68614 -46.220773,20.90646 -66.250003,11.96428 -23.65461,-10.56075 -11.48494,-19.97429 16.25,-17.67857 20.71976,1.71505 41.895087,-9.31143 54.107146,-24.82143 6.244811,-7.93126 18.494955,-11.58638 39.475146,-6.67468 19.011762,4.45088 64.383481,16.64972 100.346283,32.56754" id="path7285" inkscape:connector-curvature="0" sodipodi:nodetypes="ccsscsscssssc" />
        <path style="fill:url(#linearGradient7346);fill-opacity:1;stroke:url(#linearGradient7342);stroke-width:7;stroke-linecap:butt;stroke-linejoin:miter;stroke-miterlimit:4;stroke-opacity:1;stroke-dasharray:none" d="M 61.871844,402.32901 C 31.843324,384.89312 42.760502,318.59411 85.862966,329.59804" id="path7283" inkscape:connector-curvature="0" sodipodi:nodetypes="cc" />
        <path style="fill:url(#linearGradient7344);fill-opacity:1;stroke:url(#linearGradient7340);stroke-width:7;stroke-linecap:butt;stroke-linejoin:miter;stroke-miterlimit:4;stroke-opacity:1;stroke-dasharray:none" d="m 115.40993,313.68813 c 54.0774,-83.99218 112.61777,-54.83414 58.84139,-5.42957" id="path7281" inkscape:connector-curvature="0" sodipodi:nodetypes="cc" />
        <path style="fill:url(#linearGradient7350);fill-opacity:1;stroke:url(#linearGradient7348);stroke-width:7;stroke-linecap:butt;stroke-linejoin:miter;stroke-miterlimit:4;stroke-opacity:1;stroke-dasharray:none" d="m 520.71429,477.8979 c -36.58997,-22.79014 -80.07706,-40.90009 -130,-54.64286 C 307.55044,307.19659 156.63219,291.14907 96.964286,320.57647 59.904011,338.8541 38.323818,426.16901 103.02383,478.35566 c 80.89541,65.24977 175.766,51.14545 222.70315,6.98621 17.31019,-16.2857 29.36031,-26.92057 45.88017,-34.58683 40.83187,11.65842 77.13115,29.75538 110.53571,51.96428" id="path7275" inkscape:connector-curvature="0" sodipodi:nodetypes="ccssscc" />
        <path style="fill:url(#linearGradient7322);fill-opacity:1;stroke:url(#linearGradient7320);stroke-width:7;stroke-linecap:butt;stroke-linejoin:miter;stroke-miterlimit:10;stroke-opacity:1;stroke-dasharray:none" d="m 542.67857,572.36218 c 19.31128,13.07247 36.63681,30.52348 46.96429,55.17857 17.1107,40.8489 65.76633,11.55559 10.17857,-49.10714 116.70903,58.70536 118.49072,-0.46028 76.60714,-12.67857 -26.99824,-7.87593 -48.46664,-17.49628 -64.46428,-28.39286 62.86001,4.45477 56.3618,-38.37204 14.82142,-27.32142 -19.00892,5.05677 -39.37636,4.56969 -59.28571,2.85714" id="path7287" inkscape:connector-curvature="0" sodipodi:nodetypes="cscscsc" />
        <path style="fill:url(#linearGradient7336);fill-opacity:1;stroke:none" d="m 267.32143,446.11218 c 0,0 -0.0527,-0.0188 -0.16131,-0.0551 -0.10864,-0.0363 -0.27323,-0.09 -0.49647,-0.16007 -0.11162,-0.035 -0.23789,-0.0741 -0.37909,-0.11712 -0.14119,-0.043 -0.29732,-0.09 -0.4686,-0.14073 -0.17128,-0.0507 -0.35772,-0.10531 -0.5595,-0.16356 -0.20177,-0.0582 -0.41889,-0.12019 -0.65147,-0.1857 -0.23258,-0.0655 -0.48063,-0.13462 -0.74423,-0.2072 -0.2636,-0.0726 -0.54275,-0.14865 -0.83746,-0.22812 -0.29471,-0.0795 -0.60499,-0.16235 -0.9308,-0.24857 -0.32581,-0.0862 -0.66714,-0.17575 -1.02391,-0.26858 -0.35676,-0.0928 -0.72894,-0.18893 -1.11639,-0.28827 -0.38744,-0.0993 -0.79014,-0.20193 -1.20786,-0.30772 -0.41773,-0.10579 -0.85047,-0.2148 -1.29792,-0.327 -0.44745,-0.11221 -0.90961,-0.22762 -1.3861,-0.34623 -0.47649,-0.11861 -0.9673,-0.24043 -1.47198,-0.36548 -0.50468,-0.12505 -1.02322,-0.25332 -1.55508,-0.38486 -0.53186,-0.13154 -1.07703,-0.26635 -1.6349,-0.40447 -0.55787,-0.13813 -1.12843,-0.27958 -1.71097,-0.42442 -0.58254,-0.14484 -1.17705,-0.29308 -1.78274,-0.44481 -0.60569,-0.15172 -1.22256,-0.30693 -1.8497,-0.46573 -0.62714,-0.15881 -1.26457,-0.32121 -1.91128,-0.48733 -0.64672,-0.16612 -1.30273,-0.33597 -1.96694,-0.50969 -0.66422,-0.17372 -1.33665,-0.35132 -2.01612,-0.53295 -0.67946,-0.18163 -1.36595,-0.3673 -2.0582,-0.55719 -0.69226,-0.18989 -1.39027,-0.38401 -2.09266,-0.58256 -0.70239,-0.19855 -1.40917,-0.40152 -2.11886,-0.60914 -0.7097,-0.20762 -1.4223,-0.41989 -2.13626,-0.63704 -0.71396,-0.21716 -1.42927,-0.43919 -2.14427,-0.66635 -0.715,-0.22716 -1.4297,-0.45944 -2.14234,-0.69711 -0.71265,-0.23766 -1.42324,-0.4807 -2.12996,-0.72938 -0.61854,-0.21765 -1.25369,-0.44928 -1.89916,-0.69504 -0.64546,-0.24576 -1.30124,-0.50565 -1.96098,-0.77971 -0.65974,-0.27407 -1.32345,-0.56232 -1.9848,-0.86465 -0.66136,-0.30232 -1.32036,-0.61873 -1.97085,-0.94892 -0.65049,-0.33019 -1.29245,-0.67417 -1.91998,-1.0314 -0.62752,-0.35723 -1.24059,-0.72771 -1.83367,-1.11064 -0.29655,-0.19146 -0.5881,-0.38603 -0.87403,-0.58358 -0.28592,-0.19755 -0.56621,-0.39808 -0.84028,-0.60145 -0.27406,-0.20337 -0.54189,-0.40957 -0.80293,-0.61845 -0.26105,-0.20888 -0.51531,-0.42043 -0.76229,-0.63448 -0.22869,-0.1982 -0.45113,-0.39854 -0.667,-0.60087 -0.21586,-0.20233 -0.42513,-0.40666 -0.62754,-0.61284 -0.2024,-0.20617 -0.39793,-0.41419 -0.58635,-0.62391 -0.18842,-0.20973 -0.36974,-0.42116 -0.54379,-0.6342 -0.17405,-0.21304 -0.34082,-0.42767 -0.50022,-0.64385 -0.15939,-0.21617 -0.31141,-0.43388 -0.456,-0.6531 -0.14459,-0.21923 -0.28176,-0.43998 -0.41149,-0.6623 -0.12972,-0.22232 -0.25202,-0.44621 -0.36691,-0.67178 -0.11488,-0.22558 -0.22236,-0.45283 -0.32246,-0.68196 -0.10011,-0.22912 -0.19284,-0.46011 -0.27823,-0.69322 -0.0854,-0.23311 -0.16344,-0.46833 -0.23416,-0.70597 -0.0707,-0.23765 -0.13409,-0.47771 -0.19009,-0.72054 -0.056,-0.24283 -0.10464,-0.48844 -0.1458,-0.73719 -0.0412,-0.24874 -0.0748,-0.50064 -0.1009,-0.75606 -0.0261,-0.25541 -0.0445,-0.51436 -0.0551,-0.77717 -0.0106,-0.26282 -0.0133,-0.52952 -0.008,-0.80039 0.005,-0.24901 0.0168,-0.50154 0.0357,-0.75777 0.0189,-0.25623 0.0449,-0.51614 0.0782,-0.77986 0.0333,-0.26372 0.0739,-0.53124 0.12211,-0.80261 0.0482,-0.27138 0.10391,-0.54661 0.16739,-0.82571 0.0635,-0.27909 0.13474,-0.56205 0.21393,-0.84883 0.0792,-0.28678 0.16633,-0.57738 0.26157,-0.87171 0.19049,-0.58868 0.41343,-1.19234 0.66964,-1.80994 0.25622,-0.6176 0.54571,-1.24912 0.86872,-1.89318 0.32302,-0.64405 0.67955,-1.30063 1.06927,-1.96818 0.38973,-0.66755 0.81266,-1.34607 1.268,-2.03397 0.45533,-0.6879 0.94308,-1.38519 1.46205,-2.09031 0.24781,-0.3367 0.50758,-0.67525 0.77876,-1.01507 0.27117,-0.33982 0.55374,-0.68091 0.8471,-1.02275 0.58671,-0.68366 1.21657,-1.37025 1.88411,-2.0559 0.66754,-0.68565 1.37273,-1.37035 2.10964,-2.05076 0.73691,-0.68041 1.50552,-1.35653 2.29969,-2.02546 0.79416,-0.66892 1.61387,-1.33066 2.45294,-1.98272 0.83907,-0.65205 1.6975,-1.29444 2.56918,-1.92502 0.87168,-0.63058 1.75661,-1.24937 2.64888,-1.85456 0.89227,-0.6052 1.79186,-1.1968 2.69311,-1.77331 0.90124,-0.57651 1.80413,-1.13794 2.70326,-1.68305 0.89912,-0.54511 1.79449,-1.07392 2.681,-1.58544 0.88651,-0.51152 1.76416,-1.00576 2.6282,-1.48198 0.86404,-0.47622 1.71447,-0.93443 2.54689,-1.3741 0.83241,-0.43967 1.64681,-0.8608 2.43917,-1.26307 0.79235,-0.40227 1.56266,-0.78568 2.30724,-1.15006 0.74459,-0.36438 1.46346,-0.70975 2.15329,-1.03607 0.68983,-0.32632 1.35064,-0.6336 1.97942,-0.92192 0,0 0,0 0,0 1e-5,-10e-6 1e-5,-10e-6 1e-5,-10e-6 0.63831,-0.29269 1.31069,-0.59659 2.01553,-0.90966 0.70485,-0.31307 1.44215,-0.63531 2.20999,-0.96453 0.76784,-0.32922 1.56623,-0.66543 2.39289,-1.00631 0.82666,-0.34087 1.6816,-0.68642 2.56218,-1.03421 0.88058,-0.3478 1.78681,-0.69784 2.71563,-1.0476 0.92882,-0.34975 1.88025,-0.69923 2.85082,-1.04581 0.97058,-0.34659 1.9603,-0.69027 2.9653,-1.02839 1.00499,-0.33812 2.02526,-0.67066 3.05651,-0.99491 1.03124,-0.32425 2.07347,-0.6402 3.12199,-0.94511 1.04852,-0.3049 2.10333,-0.59875 3.15934,-0.8788 1.05601,-0.28005 2.11324,-0.54629 3.16622,-0.79599 1.05299,-0.24971 2.10174,-0.48287 3.14047,-0.69685 1.03872,-0.21399 2.06742,-0.40877 3.07997,-0.58187 1.01255,-0.17309 2.00895,-0.32448 2.98273,-0.45193 0.97378,-0.12744 1.92496,-0.23092 2.8467,-0.3086 0.46088,-0.0388 0.91439,-0.0712 1.35965,-0.097 0.44526,-0.0258 0.88228,-0.0449 1.31013,-0.0573 0.39,-0.0113 0.80043,-0.0121 1.22584,-0.002 0.42541,0.0106 0.8658,0.0325 1.31592,0.0663 0.45012,0.0338 0.90996,0.0795 1.37432,0.13714 0.46436,0.0577 0.93325,0.12743 1.40147,0.20911 0.46822,0.0817 0.93577,0.17532 1.39743,0.28054 0.46166,0.10522 0.91743,0.22202 1.36211,0.34969 0.44467,0.12767 0.87825,0.2662 1.29559,0.41439 0.20868,0.0741 0.4133,0.15061 0.61324,0.22931 0.19995,0.0787 0.39521,0.15961 0.58519,0.24246 0.19358,0.0844 0.38166,0.17086 0.56366,0.25901 0.18199,0.0881 0.35788,0.17799 0.52711,0.26916 0.16923,0.0912 0.33179,0.18367 0.48717,0.27704 0.15538,0.0934 0.30358,0.18763 0.44417,0.28224 0.1406,0.0946 0.27359,0.18961 0.39868,0.28439 0.1251,0.0948 0.24228,0.18935 0.35144,0.28311 0.10915,0.0938 0.21026,0.18671 0.30341,0.27824 0.0931,0.0915 0.17832,0.18166 0.25584,0.26986 0.0817,0.0929 0.15487,0.18371 0.22021,0.27192 0.0653,0.0882 0.12284,0.17386 0.17346,0.25692 0.0506,0.0831 0.0944,0.16352 0.13234,0.24193 0.038,0.0784 0.0702,0.15476 0.0977,0.23015 0.0275,0.0754 0.0503,0.14982 0.069,0.22482 0.0188,0.075 0.0335,0.15059 0.0445,0.22856 0.011,0.078 0.0181,0.15832 0.0211,0.24286 0.003,0.0845 0.002,0.17327 -0.004,0.26768 -0.004,0.0572 -0.009,0.1165 -0.0171,0.1781 -0.008,0.0616 -0.0176,0.12551 -0.0297,0.19187 -0.0122,0.0664 -0.0267,0.13518 -0.0438,0.20653 -0.0171,0.0713 -0.0369,0.14524 -0.0595,0.22169 -0.0452,0.15291 -0.10185,0.31609 -0.17164,0.48924 -0.0698,0.17314 -0.15271,0.35622 -0.25001,0.54845 -0.0973,0.19222 -0.20895,0.39356 -0.33569,0.60294 -0.12674,0.20938 -0.26855,0.42678 -0.42566,0.65101 -0.15711,0.22422 -0.32952,0.45526 -0.51701,0.69188 -0.1875,0.23662 -0.39008,0.47882 -0.60721,0.72543 -0.21714,0.24662 -0.44882,0.49763 -0.69426,0.75197 -0.24545,0.25435 -0.50466,0.51201 -0.77666,0.77204 -0.27201,0.26002 -0.55682,0.5224 -0.85335,0.78627 -0.29654,0.26387 -0.60479,0.52924 -0.92362,0.79533 -0.31883,0.26609 -0.64823,0.53292 -0.98698,0.79978 -0.33876,0.26686 -0.68687,0.53377 -1.04307,0.80009 -0.3562,0.26631 -0.72049,0.53204 -1.09153,0.79658 -0.37104,0.26453 -0.74884,0.52788 -1.13199,0.78947 -0.42204,0.28813 -0.85057,0.57411 -1.28362,0.8572 -0.43305,0.28308 -0.87061,0.56326 -1.31067,0.83981 -0.88012,0.5531 -1.77022,1.09167 -2.65358,1.61018 -0.55202,0.32403 -1.10978,0.64517 -1.67166,0.96301 -0.56188,0.31785 -1.12787,0.63241 -1.6964,0.94332 -0.56853,0.31091 -1.1396,0.61817 -1.71171,0.92147 -0.5721,0.3033 -1.14524,0.60264 -1.71799,0.89773 -0.57274,0.29509 -1.14508,0.58594 -1.71566,0.87229 -0.57059,0.28635 -1.13941,0.5682 -1.70519,0.84534 -0.56577,0.27714 -1.1285,0.54956 -1.68697,0.81706 -0.55848,0.26751 -1.11269,0.5301 -1.66152,0.78761 -0.54883,0.25751 -1.09227,0.50994 -1.62927,0.75713 -0.537,0.2472 -1.06755,0.48916 -1.59069,0.72577 -0.52314,0.2366 -1.03887,0.46785 -1.54628,0.69363 -0.50741,0.22579 -1.00652,0.44611 -1.49649,0.66088 -0.48998,0.21478 -0.97083,0.424 -1.44181,0.6276 -0.47099,0.20361 -0.9321,0.4016 -1.3827,0.59392 -0.45059,0.19232 -0.89066,0.37897 -1.31962,0.55992 -0.42896,0.18095 -0.84681,0.3562 -1.25304,0.52573 -0.40623,0.16953 -0.80084,0.33333 -1.1834,0.49142 -0.38255,0.15808 -0.75305,0.31044 -1.11113,0.45708 -0.35808,0.14665 -0.70373,0.28758 -1.03667,0.42282 -0.33294,0.13524 -0.65315,0.26479 -0.96042,0.38868 -0.30727,0.1239 -0.60159,0.24214 -0.88279,0.35477 -0.2812,0.11263 -0.54929,0.21966 -0.80415,0.32114 -0.25487,0.10148 -0.49651,0.19742 -0.72488,0.28787 -0.22837,0.0905 -0.44348,0.17544 -0.64532,0.25502 -0.20184,0.0796 -0.39043,0.15376 -0.56581,0.22264 -0.17539,0.0689 -0.33758,0.13243 -0.48668,0.19079 -0.1491,0.0583 -0.28511,0.11149 -0.40819,0.15953 -0.12309,0.048 -0.23324,0.091 -0.33067,0.1289 -0.19486,0.0759 -0.33877,0.13177 -0.43382,0.16868 -0.0951,0.0369 -0.14126,0.0548 -0.14126,0.0548 l 2.53136,6.52626 c 0,0 0.0469,-0.0182 0.14336,-0.0556 0.0965,-0.0374 0.24252,-0.0942 0.44031,-0.1712 0.0989,-0.0385 0.21071,-0.0821 0.33566,-0.13085 0.12495,-0.0488 0.26304,-0.10271 0.41442,-0.16196 0.15139,-0.0593 0.31608,-0.12379 0.49418,-0.19373 0.17811,-0.07 0.36964,-0.14529 0.57466,-0.22612 0.20503,-0.0808 0.42355,-0.16716 0.65558,-0.25907 0.23203,-0.0919 0.47758,-0.18939 0.73661,-0.29253 0.25902,-0.10314 0.53153,-0.21193 0.81743,-0.32645 0.2859,-0.11451 0.58519,-0.23475 0.89771,-0.36076 0.31253,-0.12602 0.63829,-0.25781 0.97709,-0.39543 0.33879,-0.13762 0.6906,-0.28106 1.05517,-0.43036 0.36456,-0.1493 0.74188,-0.30446 1.13159,-0.4655 0.38972,-0.16104 0.79184,-0.32797 1.20596,-0.50078 0.41411,-0.17282 0.84021,-0.35153 1.27783,-0.53613 0.43761,-0.1846 0.88674,-0.37509 1.34681,-0.57146 0.46008,-0.19636 0.93111,-0.39861 1.41248,-0.6067 0.48136,-0.20809 0.97305,-0.42202 1.47437,-0.64177 0.50132,-0.21974 1.01226,-0.44529 1.53207,-0.67658 0.5198,-0.2313 1.04846,-0.46834 1.58513,-0.71106 0.53667,-0.24272 1.08135,-0.49112 1.63313,-0.74512 0.55177,-0.25399 1.11063,-0.51357 1.67559,-0.77865 0.56496,-0.26508 1.13602,-0.53565 1.71212,-0.8116 0.5761,-0.27595 1.15724,-0.55727 1.74229,-0.84385 0.58506,-0.28658 1.17402,-0.57841 1.7657,-0.87535 0.59168,-0.29694 1.18608,-0.59899 1.78195,-0.906 0.59587,-0.30701 1.1932,-0.61898 1.79069,-0.93574 0.59749,-0.31676 1.19513,-0.63831 1.79157,-0.96449 1.19288,-0.65235 2.38098,-1.3232 3.55293,-2.01112 0.46884,-0.27521 0.9408,-0.5565 1.4139,-0.84337 0.47309,-0.28687 0.94733,-0.57932 1.42078,-0.87685 0.47345,-0.29754 0.94612,-0.60017 1.41614,-0.90743 0.47003,-0.30725 0.93742,-0.61913 1.40038,-0.93521 0.42031,-0.28695 0.83698,-0.57736 1.24874,-0.87093 0.41176,-0.29357 0.81861,-0.59029 1.21932,-0.8899 0.40071,-0.29961 0.79529,-0.60209 1.18259,-0.90723 0.3873,-0.30513 0.76732,-0.61291 1.13902,-0.92318 0.3717,-0.31026 0.73509,-0.62301 1.08922,-0.93817 0.35413,-0.31515 0.699,-0.63271 1.03379,-0.95272 0.33478,-0.32001 0.65948,-0.64247 0.97332,-0.96754 0.31383,-0.32507 0.61681,-0.65276 0.90819,-0.98335 0.29138,-0.33059 0.57115,-0.6641 0.83852,-1.00092 0.26737,-0.33682 0.52234,-0.67697 0.76398,-1.02093 0.24164,-0.34396 0.46995,-0.69174 0.68379,-1.04382 0.21383,-0.35209 0.4132,-0.70849 0.59666,-1.06961 0.18347,-0.36112 0.35103,-0.72697 0.50097,-1.09769 0.14993,-0.37072 0.28223,-0.74633 0.39491,-1.12651 0.0563,-0.19009 0.10776,-0.38132 0.15401,-0.57358 0.0463,-0.19226 0.0874,-0.38555 0.123,-0.57973 0.0356,-0.19417 0.0659,-0.38922 0.0904,-0.58493 0.0245,-0.19571 0.0434,-0.39207 0.0564,-0.58879 0.0214,-0.32465 0.0267,-0.65029 0.0152,-0.97514 -0.006,-0.16242 -0.0157,-0.32463 -0.0298,-0.48638 -0.0142,-0.16176 -0.0325,-0.32304 -0.0551,-0.48361 -0.0226,-0.16056 -0.0494,-0.3204 -0.0803,-0.47924 -0.031,-0.15885 -0.0661,-0.31671 -0.10525,-0.47333 -0.0784,-0.31323 -0.17307,-0.62147 -0.28294,-0.92292 -0.10987,-0.30144 -0.23491,-0.5961 -0.37355,-0.88261 -0.13865,-0.28652 -0.2909,-0.56491 -0.45503,-0.83439 -0.16413,-0.26948 -0.34014,-0.53007 -0.52637,-0.78155 -0.18623,-0.25148 -0.38269,-0.49388 -0.58795,-0.72739 -0.1948,-0.22161 -0.39752,-0.43523 -0.60714,-0.64122 -0.20962,-0.20599 -0.42614,-0.40436 -0.64873,-0.59554 -0.22259,-0.19119 -0.45125,-0.3752 -0.68529,-0.55251 -0.23404,-0.17731 -0.47346,-0.34792 -0.71769,-0.51228 -0.24423,-0.16436 -0.49328,-0.32248 -0.74665,-0.47475 -0.25337,-0.15227 -0.51107,-0.2987 -0.77265,-0.43964 -0.26158,-0.14093 -0.52704,-0.27638 -0.79597,-0.40664 -0.26892,-0.13025 -0.54131,-0.25531 -0.81676,-0.37544 -0.54067,-0.23579 -1.09312,-0.45258 -1.65419,-0.65183 -0.56108,-0.19925 -1.13078,-0.38095 -1.70587,-0.54612 -0.57509,-0.16517 -1.15556,-0.31381 -1.73806,-0.44663 -0.5825,-0.13283 -1.16703,-0.24983 -1.75018,-0.35158 -0.58315,-0.10174 -1.1649,-0.18821 -1.74191,-0.25985 -0.577,-0.0716 -1.14924,-0.12844 -1.71353,-0.17075 -0.5643,-0.0423 -1.12064,-0.0701 -1.66622,-0.0837 -0.2728,-0.007 -0.54291,-0.01 -0.81005,-0.01 -0.26714,3.9e-4 -0.5313,0.004 -0.79223,0.0119 -0.49846,0.0145 -1.00253,0.0366 -1.51178,0.0661 -0.50925,0.0295 -1.02368,0.0663 -1.5428,0.11 -1.03824,0.0875 -2.09526,0.20266 -3.1668,0.34272 -1.07154,0.14007 -2.15758,0.30501 -3.25354,0.49207 -1.09595,0.18706 -2.20181,0.39623 -3.31282,0.62478 -1.11101,0.22854 -2.22715,0.47646 -3.34366,0.74099 -1.11652,0.26453 -2.23339,0.54566 -3.34593,0.84061 -1.11255,0.29496 -2.22076,0.60372 -3.32014,0.92349 -1.09938,0.31978 -2.18993,0.65055 -3.26738,0.98953 -1.07745,0.33898 -2.14181,0.68615 -3.18911,1.03876 -1.0473,0.35261 -2.07755,0.71064 -3.08711,1.07139 -1.00957,0.36075 -1.99845,0.72421 -2.96337,1.08775 -0.96492,0.36353 -1.90588,0.72715 -2.81997,1.08829 -0.91408,0.36114 -1.80128,0.71981 -2.65904,1.07357 -0.85776,0.35375 -1.68607,0.70259 -2.48271,1.04418 -0.79664,0.34158 -1.56161,0.67592 -2.29298,1.00077 -0.73137,0.32486 -1.42915,0.64024 -2.09168,0.94404 0,0 0,0 -1e-5,0 0,0 0,0 -10e-6,10e-6 -0.65265,0.29926 -1.33865,0.61826 -2.05503,0.95714 -0.71638,0.33888 -1.46313,0.69763 -2.23697,1.07633 -0.77384,0.3787 -1.57479,0.77734 -2.39923,1.19589 -0.82444,0.41855 -1.67239,0.85701 -2.53991,1.3152 -0.86753,0.45819 -1.75463,0.93611 -2.65704,1.43345 -0.90241,0.49733 -1.82014,1.01408 -2.74859,1.54975 -0.92844,0.53567 -1.86761,1.09027 -2.8126,1.66314 -0.94499,0.57288 -1.8958,1.16403 -2.84727,1.77265 -0.95147,0.60861 -1.90359,1.2347 -2.851,1.87732 -0.94741,0.64261 -1.89009,1.30175 -2.82255,1.97637 -1.8649,1.34925 -3.68887,2.76042 -5.42712,4.22487 -0.86912,0.73222 -1.71681,1.47777 -2.5375,2.23568 -0.82069,0.75791 -1.61437,1.52817 -2.3755,2.31003 -0.76113,0.78186 -1.48971,1.57532 -2.18017,2.37991 -0.69047,0.80459 -1.34283,1.62031 -1.95137,2.44713 -0.58369,0.79305 -1.13805,1.58513 -1.66148,2.37589 -0.52344,0.79076 -1.01594,1.58021 -1.47597,2.36812 -0.46004,0.78791 -0.88761,1.57429 -1.2812,2.35899 -0.3936,0.78469 -0.75322,1.56772 -1.07731,2.34887 -0.32409,0.78116 -0.61265,1.56046 -0.86406,2.33747 -0.25142,0.77702 -0.46568,1.55176 -0.64118,2.32336 -0.0877,0.3858 -0.1658,0.77081 -0.23397,1.15486 -0.0682,0.38405 -0.12646,0.76715 -0.1747,1.14908 -0.0482,0.38194 -0.0864,0.76271 -0.11439,1.14206 -0.028,0.37936 -0.0458,0.7573 -0.0532,1.13353 -0.008,0.40925 -0.004,0.81647 0.0122,1.2212 0.0163,0.40473 0.0448,0.80698 0.0856,1.20623 0.0408,0.39926 0.0937,0.79552 0.15878,1.18828 0.065,0.39275 0.14216,0.782 0.23108,1.16723 0.0889,0.38523 0.18965,0.76645 0.30183,1.14318 0.11217,0.37674 0.23579,0.749 0.3704,1.11637 0.13461,0.36736 0.28021,0.72984 0.43627,1.08708 0.15606,0.35724 0.32258,0.70924 0.49897,1.05575 0.1764,0.34651 0.36268,0.68751 0.55821,1.02283 0.19554,0.33532 0.40034,0.66495 0.61377,0.98878 0.21343,0.32384 0.43549,0.64187 0.66555,0.95408 0.23006,0.3122 0.46812,0.61857 0.71356,0.91913 0.24544,0.30056 0.49825,0.59531 0.75785,0.88433 0.2596,0.28903 0.52597,0.57232 0.79855,0.85 0.54514,0.55536 1.11507,1.08826 1.70537,1.59986 0.63754,0.55253 1.29884,1.08022 1.97857,1.58457 0.67973,0.50435 1.3779,0.98535 2.08923,1.44442 0.71134,0.45908 1.43584,0.89622 2.16817,1.31273 0.73233,0.41651 1.47249,0.81239 2.215,1.1888 0.74251,0.37641 1.48737,0.73334 2.22896,1.07183 0.74159,0.33849 1.4799,0.65853 2.20919,0.96104 0.72928,0.30251 1.44954,0.58749 2.15492,0.85573 0.70539,0.26824 1.39591,0.51974 2.06571,0.75522 0.76529,0.26905 1.53355,0.52411 2.30276,0.76609 0.76921,0.24198 1.53937,0.47088 2.30859,0.68757 0.76922,0.21669 1.53751,0.42116 2.30314,0.61425 0.76562,0.19309 1.52857,0.37479 2.28724,0.5459 0.75868,0.1711 1.51308,0.33161 2.26172,0.48227 0.74864,0.15066 1.49152,0.29148 2.22727,0.42317 0.73576,0.13169 1.46439,0.25426 2.18465,0.3684 0.72025,0.11414 1.43213,0.21985 2.1345,0.3178 0.70236,0.0979 1.39521,0.18812 2.0775,0.27117 0.68229,0.083 1.35402,0.15897 2.01427,0.22837 0.66024,0.0694 1.30899,0.1323 1.94541,0.18926 0.63642,0.057 1.26051,0.10799 1.87152,0.15365 0.611,0.0457 1.20894,0.086 1.79313,0.12143 0.5842,0.0355 1.15466,0.0661 1.71081,0.0924 0.55616,0.0263 1.09801,0.0484 1.62506,0.0665 0.52706,0.0182 1.03932,0.0326 1.53638,0.0436 0.49706,0.011 0.97892,0.0187 1.44523,0.0235 0.46632,0.005 0.9171,0.007 1.35209,0.006 0.43498,-5.5e-4 0.85417,-0.004 1.25736,-0.009 0.40319,-0.005 0.79039,-0.0121 1.16147,-0.0209 0.37108,-0.009 0.72605,-0.0191 1.06482,-0.0308 0.33878,-0.0116 0.66136,-0.0246 0.96776,-0.0384 0.30639,-0.0138 0.59659,-0.0285 0.87065,-0.0437 0.27405,-0.0152 0.53195,-0.031 0.77381,-0.047 0.24185,-0.016 0.46766,-0.0322 0.67756,-0.0483 0.2099,-0.0161 0.4039,-0.032 0.58218,-0.0476 0.35657,-0.031 0.65025,-0.0604 0.88304,-0.0856 0.2328,-0.0252 0.40471,-0.0463 0.51832,-0.061 C 267.26614,446.1206 267.32143,446.11218 267.32143,446.11218 Z" id="path7259" inkscape:connector-curvature="0" sodipodi:nodetypes="cssc" inkscape:path-effect="#path-effect7265" inkscape:original-d="m 267.32143,446.11218 c -61.38047,-5.91938 -76.6423,-23.07534 -58.92857,-47.14286 14.39447,-19.55767 61.36543,-39.77381 85.37532,-40.47005 14.79603,-0.42906 45.24666,12.27308 -34.12532,43.05933" />
        <path style="fill:url(#linearGradient7334);fill-opacity:1;stroke:none" d="m 237.67857,399.32647 c 0,0 0.029,0.009 0.0881,0.024 0.0592,0.0154 0.14849,0.0377 0.2689,0.0654 0.12041,0.0278 0.27191,0.061 0.45516,0.0989 0.18326,0.0379 0.39828,0.0805 0.64556,0.12742 0.24728,0.0469 0.52683,0.0982 0.83904,0.15403 0.31221,0.0558 0.65707,0.11622 1.03497,0.1819 0.3779,0.0657 0.78882,0.13664 1.23319,0.21413 0.44436,0.0775 0.92217,0.16149 1.43396,0.25373 0.51179,0.0923 1.05757,0.19274 1.63806,0.30365 0.5805,0.11091 1.19572,0.23224 1.84662,0.3666 0.6509,0.13437 1.33749,0.28178 2.06093,0.44524 0.72345,0.16347 1.48376,0.34299 2.28223,0.54195 0.79847,0.19895 1.63511,0.41733 2.51114,0.65874 0.87603,0.24142 1.79148,0.50587 2.74719,0.79701 0.47786,0.14556 0.96578,0.2978 1.4638,0.45713 0.49802,0.15934 1.00615,0.32578 1.52437,0.49973 0.51823,0.17395 1.04654,0.35541 1.58486,0.54474 0.53832,0.18932 1.08664,0.38652 1.6448,0.59189 0.41306,0.15198 0.86749,0.32368 1.35752,0.51554 0.49004,0.19186 1.01568,0.40389 1.57094,0.63616 0.27762,0.11613 0.56265,0.23731 0.85431,0.36349 0.29166,0.12619 0.58995,0.25738 0.89409,0.39349 0.30415,0.13611 0.61414,0.27714 0.92921,0.42295 0.31507,0.14582 0.6352,0.29643 0.95961,0.45165 0.32441,0.15522 0.6531,0.31506 0.98527,0.47928 0.33218,0.16423 0.66783,0.33284 1.00618,0.50558 0.33835,0.17273 0.67939,0.34958 1.02234,0.53024 0.34295,0.18065 0.6878,0.3651 1.03379,0.553 0.69196,0.37579 1.38842,0.76538 2.08333,1.1654 0.6949,0.40002 1.38824,0.81047 2.0743,1.22746 0.48103,0.29236 0.95847,0.58793 1.43051,0.88527 0.47203,0.29733 0.93866,0.59643 1.39818,0.8958 0.45951,0.29937 0.91192,0.59901 1.35567,0.89744 0.44375,0.29842 0.87885,0.59562 1.30392,0.89012 0.42508,0.29451 0.84013,0.58632 1.24399,0.87404 0.40386,0.28771 0.79653,0.57133 1.17703,0.84955 0.3805,0.27821 0.74883,0.55103 1.10425,0.81727 0.35541,0.26624 0.6979,0.5259 1.02693,0.77797 0.32903,0.25206 0.6446,0.49653 0.94638,0.73256 0.30178,0.23603 0.58977,0.46362 0.86385,0.68211 0.27408,0.21849 0.53426,0.42788 0.7806,0.62771 0.24634,0.19982 0.47885,0.39009 0.69776,0.5705 0.21892,0.18042 0.42425,0.35099 0.61639,0.51161 0.19214,0.16062 0.37108,0.31129 0.53733,0.45206 0.16626,0.14077 0.31983,0.27163 0.46128,0.39276 0.14146,0.12112 0.27081,0.23251 0.38866,0.3344 0.30284,0.26184 0.5739,0.4992 0.81753,0.71443 0.24363,0.21524 0.45982,0.40837 0.65263,0.58193 0.19281,0.17357 0.36223,0.32759 0.51202,0.46465 0.14978,0.13707 0.27993,0.25719 0.39384,0.36293 0.11392,0.10573 0.2116,0.19709 0.2961,0.2765 0.0845,0.0794 0.15582,0.1469 0.21667,0.2047 0.0609,0.0578 0.11123,0.10594 0.15349,0.14646 0.0423,0.0405 0.0764,0.0734 0.10443,0.1005 0.028,0.0271 0.05,0.0484 0.0675,0.0654 0.0175,0.017 0.0306,0.0298 0.0406,0.0396 0.0101,0.01 0.0171,0.0167 0.0221,0.0217 0.005,0.005 0.008,0.008 0.0102,0.0101 0.002,0.002 0.003,0.003 0.003,0.003 4.1e-4,4e-4 3e-4,3e-4 8e-5,8e-5 -2.2e-4,-2.2e-4 -5.5e-4,-5.5e-4 -8e-4,-7.9e-4 -2.4e-4,-2.5e-4 -3.9e-4,-4e-4 -3.9e-4,-4e-4 a 3.5,3.5 90 0 0 4.92956,-4.96984 c 0,0 -1.3e-4,-1.3e-4 -4.6e-4,-4.6e-4 -3.3e-4,-3.3e-4 -8.7e-4,-8.6e-4 -0.002,-0.002 -9.7e-4,-9.6e-4 -0.002,-0.002 -0.005,-0.005 -0.002,-0.002 -0.005,-0.005 -0.01,-0.01 -0.005,-0.005 -0.0106,-0.0105 -0.019,-0.0187 -0.008,-0.008 -0.0191,-0.0188 -0.0334,-0.0327 -0.0142,-0.0139 -0.0319,-0.0312 -0.0545,-0.0532 -0.0226,-0.022 -0.0501,-0.0486 -0.0842,-0.0816 -0.0341,-0.033 -0.0748,-0.0722 -0.12429,-0.11961 -0.0494,-0.0474 -0.10758,-0.10295 -0.17684,-0.16875 -0.0693,-0.0658 -0.14964,-0.14183 -0.24393,-0.23045 -0.0943,-0.0886 -0.20248,-0.18979 -0.32773,-0.30605 -0.12525,-0.11626 -0.26756,-0.24761 -0.43044,-0.39666 -0.16289,-0.14905 -0.34635,-0.31582 -0.55427,-0.503 -0.20792,-0.18717 -0.44031,-0.39476 -0.70137,-0.6254 -0.26107,-0.23065 -0.55083,-0.48436 -0.87381,-0.76362 -0.12569,-0.10867 -0.26354,-0.22738 -0.41417,-0.35636 -0.15064,-0.12898 -0.31405,-0.26824 -0.49083,-0.41792 -0.17678,-0.14968 -0.36693,-0.30979 -0.57097,-0.48035 -0.20403,-0.17057 -0.42196,-0.3516 -0.65418,-0.54298 -0.23222,-0.19138 -0.47873,-0.3931 -0.73981,-0.60488 -0.26108,-0.21178 -0.53672,-0.43362 -0.82701,-0.66503 -0.29029,-0.23141 -0.59524,-0.4724 -0.91475,-0.7223 -0.3195,-0.24989 -0.65356,-0.50869 -1.00188,-0.77553 -0.34831,-0.26684 -0.71088,-0.54172 -1.08717,-0.8236 -0.3763,-0.28188 -0.76633,-0.57076 -1.16935,-0.86545 -0.40302,-0.29468 -0.81903,-0.59516 -1.24708,-0.90011 -0.42805,-0.30495 -0.86814,-0.61436 -1.31909,-0.92679 -0.45095,-0.31244 -0.91278,-0.62789 -1.3841,-0.94486 -0.47133,-0.31696 -0.95215,-0.63543 -1.44092,-0.95386 -0.48878,-0.31844 -0.98549,-0.63682 -1.48843,-0.95362 -0.50294,-0.3168 -1.0121,-0.63201 -1.52559,-0.94411 -0.73239,-0.44515 -1.47362,-0.88396 -2.21777,-1.31233 -0.74415,-0.42838 -1.49122,-0.84629 -2.23483,-1.25013 -0.3718,-0.20192 -0.74273,-0.40033 -1.11197,-0.59484 -0.36924,-0.1945 -0.73678,-0.3851 -1.10177,-0.57144 -0.365,-0.18634 -0.72746,-0.36843 -1.08652,-0.54595 -0.35906,-0.17752 -0.71472,-0.35048 -1.06611,-0.51862 -0.3514,-0.16814 -0.69853,-0.33146 -1.04053,-0.48975 -0.34199,-0.15829 -0.67885,-0.31155 -1.0097,-0.45962 -0.33084,-0.14807 -0.65568,-0.29094 -0.97362,-0.42851 -0.31795,-0.13757 -0.62901,-0.26983 -0.93231,-0.39671 -0.60659,-0.25376 -1.18213,-0.48596 -1.71969,-0.69645 -0.53756,-0.21049 -1.03715,-0.39928 -1.49199,-0.56666 -0.61461,-0.22617 -1.22236,-0.43715 -1.82234,-0.6334 -0.59998,-0.19626 -1.19219,-0.3778 -1.77582,-0.5452 -0.58363,-0.16741 -1.15868,-0.32068 -1.72445,-0.46048 -0.56577,-0.1398 -1.12225,-0.26613 -1.66883,-0.37975 -0.54658,-0.11362 -1.08326,-0.21452 -1.60951,-0.30352 -0.52625,-0.089 -1.04207,-0.16607 -1.54703,-0.23211 -0.50495,-0.066 -0.99904,-0.12102 -1.48192,-0.16586 -0.48287,-0.0448 -0.95453,-0.0795 -1.4147,-0.10497 -0.46016,-0.0254 -0.90885,-0.0417 -1.34585,-0.0496 -0.43701,-0.008 -0.86233,-0.008 -1.27587,1.9e-4 -0.41354,0.008 -0.81528,0.0228 -1.20519,0.0444 -0.38991,0.0215 -0.76798,0.0495 -1.13425,0.083 -0.36626,0.0335 -0.72071,0.0725 -1.06344,0.11613 -0.34272,0.0436 -0.67372,0.0919 -0.99312,0.14396 -0.31941,0.052 -0.62722,0.10787 -0.92363,0.16665 -0.29642,0.0588 -0.58143,0.12052 -0.85526,0.18444 -0.27384,0.0639 -0.5365,0.13 -0.78825,0.19754 -0.25176,0.0675 -0.4926,0.1365 -0.72283,0.20623 -0.23023,0.0697 -0.44985,0.1402 -0.65917,0.21079 -0.20932,0.0706 -0.40835,0.14129 -0.59742,0.2115 -0.18907,0.0702 -0.36818,0.13994 -0.53769,0.20864 -0.1695,0.0687 -0.3294,0.13635 -0.48005,0.20248 -0.15064,0.0661 -0.29204,0.13071 -0.42456,0.1933 -0.13251,0.0626 -0.25613,0.1232 -0.37123,0.18139 -0.2302,0.11637 -0.4263,0.22307 -0.59113,0.31721 -0.16484,0.0941 -0.29841,0.17572 -0.40338,0.24243 -0.10497,0.0667 -0.18135,0.11852 -0.23156,0.15357 C 237.70261,399.30818 237.67857,399.32647 237.67857,399.32647 Z" id="path7261" inkscape:connector-curvature="0" sodipodi:nodetypes="cc" inkscape:path-effect="#path-effect7263" inkscape:original-d="m 237.67857,399.32647 c 30.1635,-5.47812 61.16072,25.26785 61.16072,25.26785" />
        <path style="fill:url(#linearGradient7338);fill-opacity:1;stroke:none" d="m 114.26881,483.99564 c -0.24787,-0.28738 -0.49381,-0.58962 -0.73719,-0.90546 -0.24338,-0.31584 -0.48421,-0.64527 -0.72201,-0.98699 -0.2378,-0.34172 -0.47257,-0.69574 -0.70396,-1.06076 -0.23139,-0.36503 -0.45939,-0.74106 -0.68375,-1.12687 -0.22436,-0.3858 -0.44508,-0.78137 -0.66196,-1.18551 -0.21688,-0.40415 -0.42994,-0.81686 -0.63904,-1.23702 -0.2091,-0.42015 -0.41425,-0.84774 -0.61539,-1.2817 -0.20113,-0.43396 -0.39824,-0.87429 -0.5913,-1.31997 -0.19306,-0.44569 -0.38208,-0.89673 -0.56705,-1.3522 -0.18498,-0.45547 -0.36591,-0.91536 -0.54283,-1.37879 -0.17692,-0.46343 -0.34983,-0.93041 -0.51879,-1.40013 -0.16895,-0.46971 -0.33395,-0.94215 -0.49507,-1.41658 -0.16111,-0.47442 -0.31834,-0.95082 -0.47176,-1.4285 -0.15342,-0.47769 -0.30305,-0.95665 -0.44896,-1.43624 -0.14591,-0.47959 -0.28812,-0.95981 -0.42672,-1.44007 -0.1386,-0.48026 -0.27359,-0.96054 -0.40508,-1.44031 -0.26299,-0.95953 -0.51198,-1.91693 -0.74789,-2.86824 -0.23591,-0.95132 -0.45873,-1.89655 -0.66944,-2.8323 -0.2107,-0.93576 -0.40928,-1.86204 -0.5967,-2.77596 -0.18742,-0.91391 -0.36369,-1.81546 -0.52976,-2.70218 -0.16607,-0.88671 -0.32194,-1.75859 -0.46856,-2.61355 -0.14662,-0.85495 -0.28399,-1.69298 -0.413,-2.51234 -0.12902,-0.81935 -0.24969,-1.62003 -0.36287,-2.40058 -0.11319,-0.78055 -0.21889,-1.54097 -0.31792,-2.28008 -0.099,-0.73911 -0.1914,-1.4569 -0.27785,-2.15244 -0.0865,-0.69554 -0.167,-1.36882 -0.24234,-2.01911 -0.0753,-0.65029 -0.14545,-1.27759 -0.211,-1.88135 -0.0655,-0.60377 -0.12651,-1.184 -0.18347,-1.74032 -0.05696,-0.55632 -0.109907,-1.08874 -0.159347,-1.597 -0.04944,-0.50827 -0.09537,-0.9924 -0.13822,-1.45229 -0.04285,-0.45989 -0.08263,-0.89553 -0.11969,-1.30695 -0.03706,-0.41142 -0.07141,-0.79861 -0.103347,-1.16169 -0.03194,-0.36308 -0.06146,-0.70204 -0.0888,-1.0171 -0.02734,-0.31506 -0.0525,-0.6062 -0.07565,-0.87373 -0.02315,-0.26752 -0.04428,-0.51141 -0.06352,-0.73204 -0.01924,-0.22062 -0.03657,-0.41798 -0.05206,-0.59248 -0.01549,-0.1745 -0.02913,-0.32614 -0.04092,-0.45541 -0.01179,-0.12928 -0.02173,-0.23617 -0.02978,-0.32121 -0.008,-0.085 -0.01418,-0.14824 -0.01832,-0.19017 -0.0041,-0.0419 -0.0063,-0.0626 -0.0063,-0.0626 0,0 -0.0027,0.0206 -0.0081,0.0624 -0.0053,0.0418 -0.01321,0.1048 -0.02348,0.18963 -0.01027,0.0848 -0.02291,0.19148 -0.03767,0.32053 -0.01476,0.12904 -0.03163,0.28048 -0.05033,0.45486 -0.01869,0.17438 -0.0392,0.37169 -0.06116,0.59242 -0.02196,0.22074 -0.04539,0.46491 -0.06985,0.73294 -0.02446,0.26804 -0.04996,0.55994 -0.07603,0.8761 -0.02606,0.31616 -0.05269,0.65657 -0.07934,1.02154 -0.02665,0.36497 -0.05331,0.75451 -0.07939,1.16885 -0.02608,0.41433 -0.05156,0.85346 -0.07578,1.31753 -0.02422,0.46407 -0.04716,0.95307 -0.06809,1.46705 -0.02093,0.51397 -0.03983,1.05291 -0.0559,1.61674 -0.01606,0.56382 -0.02928,1.15252 -0.03876,1.76587 -0.0095,0.61335 -0.01522,1.25136 -0.01624,1.91362 -0.001,0.66226 0.0027,1.34879 0.01209,2.059 0.0094,0.71022 0.02462,1.44413 0.04667,2.20095 0.02205,0.75681 0.05097,1.53655 0.08793,2.33817 0.03696,0.80163 0.08197,1.62516 0.136281,2.4693 0.05431,0.84413 0.117907,1.70889 0.192112,2.59266 0.07421,0.88378 0.159014,1.78658 0.255793,2.70647 0.09678,0.91989 0.205529,1.85687 0.327667,2.80861 0.122137,0.95175 0.257663,1.91827 0.408039,2.8968 0.150376,0.97854 0.3156,1.96909 0.49719,2.96845 0.18158,0.99936 0.37951,2.00753 0.59535,3.02078 0.21583,1.01325 0.44956,2.03159 0.70278,3.05077 0.25322,1.01919 0.52592,2.03921 0.81975,3.05527 0.29383,1.01607 0.6088,2.02818 0.94666,3.03096 0.16893,0.50138 0.34358,1.00043 0.5242,1.4964 0.18062,0.49597 0.3672,0.98887 0.55999,1.47792 0.19279,0.48905 0.3918,0.97426 0.59729,1.4548 0.20549,0.48054 0.41747,0.95642 0.63624,1.42676 0.21876,0.47035 0.44431,0.93516 0.67699,1.39352 0.23267,0.45835 0.47247,0.91024 0.71977,1.35467 0.24731,0.44443 0.50211,0.8814 0.76486,1.30983 0.26275,0.42843 0.53344,0.84831 0.81259,1.25846 0.27915,0.41015 0.56675,0.81057 0.86342,1.19994 0.29666,0.38936 0.60238,0.76767 0.91789,1.13343 L 114.26881,483.99564 Z" id="path7277" inkscape:connector-curvature="0" sodipodi:nodetypes="cc" inkscape:path-effect="#path-effect7279" inkscape:original-d="m 112.37576,485.62853 c -8.0125,-9.28909 -13.659001,-32.42801 -13.254541,-60.57108" />
        <g id="g7352" inkscape:expanded="true">
            <path style="fill:url(#linearGradient7328);fill-opacity:1" inkscape:original-d="M 0,0" inkscape:path-effect="#path-effect7324" id="path7326" d="m 496.07143,489.86218 c -22.96381,22.02335 -33.10761,43.69816 -31.24102,64.76913 -14.59341,7.92939 -25.08603,12.26947 -36.7429,15.54271 -42.72299,11.99661 -25.88774,38.33689 33.85512,12.62825 -8.71682,12.43389 -24.13957,25.6235 -32.64698,31.77553 -46.91615,33.92687 28.43435,49.06041 55.88292,-42.21562 l -1.96428,9.10714 c 38.24231,11.12692 76.52693,-8.65656 83.21428,-49.10714 C 574.16612,485.5591 545.92889,460.23686 502.5,487.54075" inkscape:connector-curvature="0" />
            <path inkscape:original-d="m 496.07143,489.86218 c -22.96381,22.02335 -33.10761,43.69816 -31.24102,64.76913 -14.59341,7.92939 -25.08603,12.26947 -36.7429,15.54271 -42.72299,11.99661 -25.88774,38.33689 33.85512,12.62825 -8.71682,12.43389 -24.13957,25.6235 -32.64698,31.77553 -46.91615,33.92687 28.43435,49.06041 55.88292,-42.21562" inkscape:path-effect="#path-effect7271" sodipodi:nodetypes="ccscsc" inkscape:connector-curvature="0" id="path7267" d="m 496.07143,489.86218 c 0,0 -0.0263,0.006 -0.0787,0.021 -0.0524,0.0148 -0.13097,0.0381 -0.23545,0.0722 -0.10448,0.0341 -0.23488,0.0791 -0.39091,0.13717 -0.15603,0.0581 -0.3377,0.12936 -0.54459,0.21613 -0.20689,0.0868 -0.43901,0.18904 -0.69581,0.3092 -0.2568,0.12017 -0.53828,0.25822 -0.84373,0.41654 -0.30545,0.15832 -0.63487,0.33692 -0.98734,0.53817 -0.35247,0.20126 -0.72799,0.42518 -1.1254,0.67414 -0.3974,0.24896 -0.81671,0.52297 -1.25646,0.82437 -0.43975,0.30141 -0.89996,0.63021 -1.37886,0.98874 -0.47891,0.35853 -0.97651,0.74679 -1.49069,1.16704 -0.51417,0.42025 -1.04493,0.8725 -1.58973,1.35893 -0.54479,0.48643 -1.10363,1.00705 -1.67352,1.56394 -0.56989,0.55688 -1.15082,1.15004 -1.73929,1.7814 -0.58846,0.63136 -1.18446,1.30093 -1.78389,2.01043 -0.29971,0.35476 -0.60027,0.71949 -0.90111,1.0944 -0.30084,0.37491 -0.60196,0.75999 -0.90274,1.15542 -0.51866,0.68189 -1.04907,1.39451 -1.58702,2.13654 -0.53796,0.74203 -1.08345,1.51347 -1.63223,2.313 -1.09755,1.59905 -2.20823,3.31045 -3.29782,5.12365 -0.5448,0.90661 -1.08432,1.83866 -1.61435,2.79485 -0.53003,0.95618 -1.05056,1.93649 -1.55743,2.9396 -0.50688,1.0031 -1.0001,2.02899 -1.47561,3.07631 -0.47552,1.04731 -0.93332,2.11605 -1.36949,3.20481 -0.43617,1.08875 -0.85072,2.19753 -1.23987,3.32486 -0.38915,1.12733 -0.75291,2.27321 -1.08771,3.43611 -0.33481,1.16291 -0.64067,2.34283 -0.91424,3.53816 -0.27358,1.19532 -0.51487,2.40605 -0.72082,3.63046 -0.20596,1.22441 -0.37657,2.4625 -0.5091,3.71246 -0.13252,1.24995 -0.22696,2.51178 -0.28093,3.78356 -0.054,1.27179 -0.0674,2.55353 -0.0385,3.84325 0.0117,0.52253 0.0305,1.04637 0.0562,1.57139 -0.22552,0.12053 -0.45038,0.24035 -0.67455,0.35944 -0.87302,0.46379 -1.73575,0.91657 -2.58803,1.35805 -0.85227,0.44147 -1.6941,0.87164 -2.52552,1.29036 -0.83143,0.41872 -1.65246,0.826 -2.46333,1.22184 -0.81087,0.39585 -1.61159,0.78026 -2.40254,1.1534 -0.79096,0.37313 -1.57216,0.73498 -2.34413,1.08583 -0.77197,0.35084 -1.53472,0.69068 -2.28886,1.01988 -0.75414,0.32919 -1.49969,0.64776 -2.23732,0.95615 -0.73764,0.30839 -1.46736,0.60661 -2.1899,0.89517 -0.72253,0.28857 -1.43788,0.56749 -2.14675,0.83732 -0.70886,0.26984 -1.41125,0.53061 -2.10783,0.78289 -0.69659,0.25228 -1.38736,0.49609 -2.07291,0.73203 -0.68556,0.23594 -1.36589,0.46401 -2.04148,0.68482 -0.6756,0.22081 -1.34645,0.43436 -2.0129,0.64123 -0.66645,0.20687 -1.3285,0.40707 -1.98631,0.60114 -0.65782,0.19406 -1.31139,0.38201 -1.96071,0.56434 l -2e-5,0 c -1.48807,0.41785 -2.89914,0.85046 -4.23662,1.29485 -1.33749,0.44438 -2.60138,0.90055 -3.7952,1.36581 -1.19381,0.46526 -2.31755,0.93961 -3.37482,1.42072 -1.05727,0.48112 -2.04807,0.96899 -2.97615,1.46176 -0.46404,0.24638 -0.9124,0.494 -1.34556,0.74266 -0.43316,0.24867 -0.85112,0.49839 -1.25436,0.74902 -0.40323,0.25063 -0.79175,0.50217 -1.16603,0.75453 -0.37428,0.25235 -0.73431,0.50552 -1.08057,0.75946 -0.34626,0.25394 -0.67875,0.50863 -0.9979,0.76409 -0.31916,0.25546 -0.62499,0.51168 -0.9179,0.76869 -0.29291,0.25702 -0.57291,0.51484 -0.84037,0.77355 -0.26745,0.25871 -0.52237,0.51832 -0.76505,0.77895 -0.28457,0.30561 -0.55232,0.61265 -0.80363,0.92135 -0.2513,0.30871 -0.48616,0.61909 -0.70475,0.93145 -0.21858,0.31235 -0.42089,0.6267 -0.60685,0.9433 -0.18595,0.3166 -0.35555,0.63547 -0.50845,0.95666 -0.15289,0.32119 -0.28907,0.64472 -0.40796,0.97025 -0.11889,0.32553 -0.22047,0.65307 -0.30407,0.98176 -0.0836,0.32869 -0.1492,0.65854 -0.19622,0.98809 -0.047,0.32956 -0.0754,0.65882 -0.0851,0.98577 -0.006,0.19876 -0.005,0.39665 0.003,0.59315 0.008,0.19649 0.0227,0.39158 0.0442,0.58471 0.0215,0.19313 0.0496,0.3843 0.0841,0.57296 0.0345,0.18867 0.0755,0.37483 0.12241,0.55801 0.0469,0.18318 0.0999,0.36339 0.15837,0.54021 0.0585,0.17681 0.12254,0.35025 0.19163,0.51999 0.0691,0.16974 0.1432,0.33579 0.22182,0.49791 0.0786,0.16213 0.16174,0.32034 0.24881,0.4745 0.0871,0.15416 0.1781,0.30427 0.27256,0.45028 0.0944,0.14601 0.19233,0.28792 0.29315,0.42576 0.10081,0.13783 0.20455,0.2716 0.31076,0.40137 0.10621,0.12977 0.2149,0.25555 0.32565,0.37747 0.11075,0.12192 0.22357,0.23998 0.33809,0.35435 0.11453,0.11437 0.23076,0.22505 0.34838,0.33221 0.23526,0.21434 0.47606,0.41465 0.7204,0.60248 0.22488,0.17289 0.46084,0.34138 0.70807,0.50511 0.24723,0.16372 0.50574,0.32268 0.77584,0.47656 0.27009,0.15388 0.55178,0.30269 0.84548,0.44614 0.2937,0.14346 0.59941,0.28156 0.91767,0.41406 0.31825,0.13251 0.64905,0.2594 0.99302,0.38042 0.34396,0.12103 0.70108,0.23617 1.07205,0.34513 0.37097,0.10896 0.75579,0.21174 1.1552,0.30795 0.3994,0.0962 0.81339,0.18586 1.24272,0.26848 0.42933,0.0826 0.874,0.15824 1.33479,0.22628 0.46078,0.068 0.93768,0.12852 1.43144,0.18079 0.49377,0.0523 1.0044,0.0964 1.53264,0.13151 0.52824,0.0351 1.07409,0.0614 1.63827,0.0779 1.12836,0.0331 2.33005,0.0275 3.61067,-0.0234 0.64032,-0.0255 1.30036,-0.0623 1.98081,-0.11129 0.68046,-0.049 1.38133,-0.11021 2.10328,-0.18451 1.11732,-0.115 2.28512,-0.26138 3.50567,-0.44282 1.22054,-0.18144 2.49382,-0.39793 3.82193,-0.65337 1.32811,-0.25544 2.71106,-0.54983 4.15074,-0.88727 1.43968,-0.33744 2.93611,-0.71794 4.49101,-1.14578 1.5549,-0.42784 3.16827,-0.90302 4.84166,-1.43001 1.33447,-0.42025 2.70712,-0.87345 4.11861,-1.36193 -0.17256,0.18502 -0.34616,0.3701 -0.52074,0.55518 -0.69557,0.73738 -1.40674,1.47485 -2.12965,2.2093 -0.72291,0.73444 -1.45756,1.46586 -2.19979,2.19109 -0.74223,0.72523 -1.49203,1.44426 -2.24506,2.15392 -0.75302,0.70967 -1.50926,1.40997 -2.26423,2.09776 -0.75496,0.68779 -1.50865,1.36308 -2.25651,2.02279 -0.74787,0.6597 -1.48991,1.30384 -2.22158,1.92944 -0.73168,0.62561 -1.45299,1.23268 -2.15945,1.81842 -0.70646,0.58573 -1.39807,1.15012 -2.07044,1.69052 -0.67236,0.54041 -1.32548,1.05682 -1.95506,1.54678 -0.62958,0.48996 -1.23563,0.95346 -1.81394,1.3882 -0.5783,0.43475 -1.12888,0.84075 -1.64761,1.21587 -0.77033,0.55705 -1.50994,1.10995 -2.21972,1.65854 -0.70978,0.54859 -1.38973,1.09286 -2.04072,1.63272 -0.651,0.53986 -1.27304,1.07529 -1.86701,1.60625 -0.59397,0.53095 -1.15986,1.05743 -1.69854,1.57942 -0.53868,0.522 -1.05014,1.03952 -1.53521,1.55263 -0.48508,0.51312 -0.94377,1.02184 -1.37685,1.52632 -0.43309,0.50448 -0.84058,1.00472 -1.22317,1.50098 -0.38259,0.49626 -0.74029,0.98854 -1.07368,1.47718 -0.34311,0.50286 -0.66047,1.00188 -0.95257,1.4975 -0.29209,0.49561 -0.55893,0.98782 -0.80069,1.47715 -0.24176,0.48934 -0.45847,0.97581 -0.64995,1.45997 -0.19148,0.48416 -0.35775,0.96603 -0.49819,1.44593 -0.0702,0.23995 -0.13398,0.4794 -0.19116,0.71835 -0.0572,0.23895 -0.10779,0.4774 -0.15167,0.7153 -0.0439,0.2379 -0.0811,0.47525 -0.11136,0.71194 -0.0303,0.2367 -0.0537,0.47275 -0.0701,0.70799 -0.0164,0.23523 -0.0257,0.46966 -0.0279,0.70305 -0.002,0.23339 0.003,0.46574 0.0153,0.69676 0.0124,0.23102 0.0322,0.4607 0.0593,0.68869 0.0272,0.22799 0.0618,0.45428 0.10397,0.67844 0.0439,0.23336 0.0958,0.46442 0.15591,0.6926 0.0601,0.22818 0.1282,0.45349 0.20423,0.67533 0.076,0.22184 0.15998,0.44021 0.25155,0.65454 0.0916,0.21433 0.19077,0.42461 0.29722,0.63032 0.10645,0.20571 0.22015,0.40685 0.34064,0.60298 0.12049,0.19613 0.24778,0.38724 0.38134,0.57299 0.13355,0.18575 0.27339,0.36614 0.41894,0.54091 0.14555,0.17478 0.29682,0.34393 0.45325,0.50733 0.15642,0.16339 0.318,0.32101 0.48419,0.47281 0.16618,0.15179 0.33697,0.29776 0.51184,0.43793 0.17487,0.14017 0.35383,0.27453 0.53641,0.40318 0.18257,0.12865 0.36876,0.25158 0.55817,0.36894 0.18941,0.11737 0.38203,0.22916 0.57752,0.33556 0.1955,0.10641 0.39387,0.20742 0.59486,0.30323 0.20098,0.0958 0.40457,0.18645 0.61056,0.27208 0.20598,0.0856 0.41437,0.16629 0.62497,0.24214 0.4451,0.16031 0.90008,0.29921 1.36365,0.41834 0.46358,0.11912 0.93578,0.21847 1.4157,0.29936 0.47993,0.0809 0.96759,0.14334 1.46232,0.18837 0.49473,0.045 0.99653,0.0727 1.50481,0.0837 0.50828,0.011 1.02304,0.005 1.54374,-0.0162 0.52069,-0.0216 1.04732,-0.0592 1.57931,-0.11233 0.53199,-0.0531 1.06934,-0.12179 1.61149,-0.20558 0.54214,-0.0838 1.08908,-0.18273 1.6402,-0.29646 1.11267,-0.22962 2.24245,-0.51956 3.38428,-0.86744 1.14182,-0.34788 2.29568,-0.75372 3.45645,-1.21529 1.16077,-0.46157 2.32844,-0.97889 3.49799,-1.54965 1.16954,-0.57077 2.34096,-1.195 3.50944,-1.8702 1.16849,-0.6752 2.33404,-1.40137 3.49217,-2.17574 1.15813,-0.77437 2.30885,-1.59694 3.44804,-2.4646 1.1392,-0.86766 2.26687,-1.78041 3.37935,-2.73481 1.11248,-0.9544 2.20977,-1.95044 3.28864,-2.98435 1.07887,-1.03391 2.13932,-2.10568 3.17859,-3.21121 1.03927,-1.10553 2.05737,-2.24483 3.052,-3.4135 0.99462,-1.16867 1.96577,-2.36671 2.9116,-3.58949 0.94583,-1.22278 1.86634,-2.47029 2.76013,-3.73766 0.89379,-1.26737 1.76085,-2.5546 2.60021,-3.85663 0.83935,-1.30203 1.65099,-2.61886 2.43432,-3.94527 0.78333,-1.3264 1.53834,-2.66239 2.26481,-4.00259 0.72647,-1.34021 1.4244,-2.68464 2.09386,-4.02785 0.25497,-0.51157 0.49994,-1.01882 0.73527,-1.52116 0.23532,-0.50234 0.46102,-0.99977 0.67745,-1.49173 0.21644,-0.49197 0.42362,-0.97848 0.62195,-1.45903 0.19832,-0.48055 0.38777,-0.95514 0.56877,-1.42332 0.18099,-0.46819 0.35351,-0.92996 0.51798,-1.38491 0.16446,-0.45495 0.32086,-0.90308 0.46961,-1.34403 0.29748,-0.88188 0.56434,-1.73498 0.80381,-2.5568 0.23947,-0.82183 0.45156,-1.61238 0.63948,-2.36978 0.18792,-0.75739 0.35167,-1.48162 0.49441,-2.17131 0.14275,-0.6897 0.26448,-1.34486 0.36827,-1.96457 0.1038,-0.61971 0.18966,-1.20398 0.26055,-1.75231 0.0709,-0.54833 0.12682,-1.06072 0.17066,-1.53705 0.0438,-0.47632 0.0756,-0.91658 0.098,-1.32094 0.0224,-0.40437 0.0355,-0.77285 0.0418,-1.10589 0.006,-0.33304 0.006,-0.63065 0.002,-0.89348 -0.004,-0.26283 -0.0131,-0.4909 -0.0235,-0.68504 -0.0104,-0.19414 -0.0224,-0.35437 -0.0339,-0.48166 -0.0114,-0.12729 -0.0223,-0.22166 -0.0302,-0.28418 -0.008,-0.0625 -0.013,-0.0932 -0.013,-0.0932 0,0 -0.0211,0.0228 -0.0623,0.0705 -0.0411,0.0477 -0.1023,0.12031 -0.18239,0.21967 -0.0801,0.0994 -0.17911,0.22548 -0.29604,0.38002 -0.11693,0.15454 -0.25176,0.33751 -0.40354,0.55033 -0.15177,0.21281 -0.32049,0.45549 -0.50526,0.72921 -0.18477,0.27373 -0.3856,0.5785 -0.60168,0.91527 -0.21608,0.33677 -0.44741,0.70554 -0.69329,1.10699 -0.24588,0.40146 -0.50631,0.83559 -0.78068,1.30284 -0.27438,0.46725 -0.5627,0.9676 -0.86448,1.50122 -0.30178,0.53361 -0.61701,1.10049 -0.94534,1.70051 -0.32832,0.60003 -0.66973,1.23319 -1.02398,1.89912 -0.35425,0.66592 -0.72135,1.3646 -1.10116,2.09539 -0.37981,0.73079 -0.77234,1.49369 -1.1776,2.28779 -0.40526,0.79411 -0.82325,1.61942 -1.25412,2.47481 -0.43087,0.85539 -0.87461,1.74084 -1.33151,2.65502 -0.4569,0.91418 -0.92695,1.85708 -1.41059,2.82717 -0.63494,1.27356 -1.29597,2.54642 -1.98294,3.81325 -0.68696,1.26683 -1.39986,2.52764 -2.1382,3.77724 -0.73833,1.2496 -1.50209,2.48799 -2.29041,3.71016 -0.78832,1.22218 -1.6012,2.42815 -2.43735,3.6131 -0.83616,1.18495 -1.6956,2.34889 -2.57661,3.48727 -0.88101,1.13837 -1.7836,2.25117 -2.70561,3.33411 -0.92201,1.08293 -1.86344,2.13599 -2.82167,3.15517 -0.95823,1.01918 -1.93326,2.00448 -2.92196,2.95217 -0.98871,0.94769 -1.99109,1.85777 -3.0035,2.72684 -1.01242,0.86908 -2.03487,1.69714 -3.06317,2.48111 -1.0283,0.78398 -2.06245,1.52387 -3.09768,2.21696 -0.51762,0.34654 -1.03549,0.68139 -1.55298,1.00424 -0.51748,0.32286 -1.03456,0.63371 -1.55056,0.93229 -0.516,0.29858 -1.03091,0.58489 -1.54399,0.85868 -0.51308,0.27379 -1.02433,0.53506 -1.53298,0.78359 -0.50864,0.24853 -1.01467,0.48432 -1.51726,0.70721 -0.50259,0.22288 -1.00173,0.43284 -1.49656,0.62975 -0.49482,0.19691 -0.98532,0.38077 -1.47056,0.55147 -0.48523,0.1707 -0.96521,0.32826 -1.43893,0.47262 -0.47373,0.14436 -0.94119,0.27552 -1.40135,0.39351 -0.46015,0.11798 -0.91299,0.22279 -1.3574,0.3145 -0.44024,0.0909 -0.8722,0.16884 -1.29472,0.23415 -0.42251,0.0653 -0.83558,0.11793 -1.23796,0.15814 -0.40239,0.0402 -0.79409,0.068 -1.17381,0.0838 -0.37971,0.0158 -0.74744,0.0195 -1.10183,0.0118 -0.35439,-0.008 -0.69542,-0.0268 -1.02174,-0.0565 -0.32631,-0.0297 -0.63789,-0.0701 -0.93339,-0.11989 -0.29551,-0.0498 -0.57494,-0.10916 -0.83712,-0.17654 -0.26217,-0.0674 -0.50708,-0.14281 -0.7339,-0.2245 -0.21465,-0.0773 -0.41309,-0.16022 -0.59506,-0.24697 -0.091,-0.0434 -0.17786,-0.0877 -0.26066,-0.13276 -0.0828,-0.0451 -0.16154,-0.0909 -0.23631,-0.13718 -0.0748,-0.0463 -0.14556,-0.0931 -0.21256,-0.14035 -0.067,-0.0472 -0.13021,-0.0947 -0.18985,-0.1425 -0.0596,-0.0478 -0.11572,-0.0958 -0.1685,-0.14393 -0.0528,-0.0482 -0.10229,-0.0965 -0.14882,-0.14503 -0.0465,-0.0485 -0.0901,-0.0973 -0.13099,-0.14628 -0.0409,-0.049 -0.0792,-0.0984 -0.11508,-0.14821 -0.0359,-0.0498 -0.0695,-0.10021 -0.101,-0.15139 -0.0315,-0.0512 -0.061,-0.10319 -0.0885,-0.15641 -0.0276,-0.0532 -0.0533,-0.10767 -0.0773,-0.16381 -0.024,-0.0561 -0.0463,-0.11397 -0.0669,-0.17403 -0.0206,-0.06 -0.0395,-0.12233 -0.0566,-0.18737 -0.0171,-0.065 -0.0325,-0.13285 -0.0458,-0.20393 -0.0128,-0.0683 -0.0238,-0.13958 -0.0328,-0.21428 -0.009,-0.0747 -0.0157,-0.15281 -0.0201,-0.23463 -0.004,-0.0818 -0.006,-0.16736 -0.005,-0.25686 8.4e-4,-0.0895 0.004,-0.18296 0.0113,-0.28055 0.007,-0.0976 0.0168,-0.19931 0.0304,-0.30526 0.0136,-0.10595 0.0308,-0.21614 0.0519,-0.3306 0.0211,-0.11446 0.0462,-0.23319 0.0757,-0.35619 0.0294,-0.123 0.0632,-0.25026 0.10168,-0.38173 0.0769,-0.26293 0.17257,-0.54271 0.28944,-0.83849 0.11686,-0.29578 0.25493,-0.60755 0.41622,-0.93422 0.16129,-0.32666 0.34579,-0.66821 0.55518,-1.02355 0.20939,-0.35533 0.44366,-0.72445 0.70421,-1.10633 0.25318,-0.37108 0.53118,-0.7542 0.83513,-1.14845 0.30395,-0.39425 0.63384,-0.79963 0.99069,-1.21532 0.35686,-0.41568 0.74067,-0.84166 1.15238,-1.27717 0.41171,-0.43552 0.85132,-0.88057 1.31972,-1.33446 0.46839,-0.45389 0.96557,-0.91662 1.49239,-1.38754 0.52682,-0.47093 1.08329,-0.95006 1.67023,-1.4368 1.17387,-0.97347 2.46967,-1.97733 3.89389,-3.00725 0.27815,-0.20113 0.56344,-0.40954 0.85556,-0.62507 0.29211,-0.21552 0.59106,-0.43817 0.89648,-0.66776 0.61084,-0.45917 1.2476,-0.94614 1.907,-1.45915 0.6594,-0.51301 1.34141,-1.05206 2.04228,-1.61505 0.70086,-0.56298 1.42056,-1.1499 2.155,-1.75836 0.73443,-0.60846 1.48358,-1.23846 2.24315,-1.88742 0.75957,-0.64895 1.52954,-1.31685 2.30552,-2.00097 0.77598,-0.68411 1.55796,-1.38443 2.34156,-2.09814 0.7836,-0.7137 1.56881,-1.44078 2.35134,-2.17836 0.78252,-0.73759 1.56237,-1.48567 2.3354,-2.24139 0.77304,-0.75571 1.53926,-1.51905 2.29476,-2.28719 0.75551,-0.76814 1.50029,-1.54106 2.23072,-2.31603 0.73043,-0.77497 1.4465,-1.55198 2.1449,-2.32841 0.6984,-0.77642 1.37914,-1.55226 2.03924,-2.32505 0.6601,-0.77279 1.29958,-1.54253 1.91588,-2.30698 0.61629,-0.76444 1.2094,-1.52357 1.77722,-2.2754 0.56782,-0.75183 1.11035,-1.49634 1.62594,-2.2318 2.03689,-2.90546 4.057,-6.32767 5.98984,-9.9933 -3.10249,1.56826 -6.50604,3.16274 -10.23922,4.7692 -1.97632,0.85046 -3.88747,1.63549 -5.7343,2.36004 -1.84683,0.72456 -3.62933,1.38863 -5.34851,1.99707 -1.71919,0.60844 -3.37506,1.16124 -4.96879,1.66313 -1.59373,0.5019 -3.12533,0.95289 -4.5961,1.35759 -1.47078,0.40469 -2.88074,0.76309 -4.23136,1.07966 -1.35061,0.31657 -2.64189,0.59131 -3.87542,0.82856 -1.23353,0.23726 -2.40931,0.43702 -3.52908,0.60347 -1.11977,0.16646 -2.18352,0.29962 -3.19309,0.40352 -1.30463,0.13428 -2.51878,0.2197 -3.64655,0.26493 -0.56389,0.0226 -1.10619,0.0352 -1.62745,0.0387 -0.52127,0.004 -1.02149,-0.002 -1.50127,-0.0155 -0.95954,-0.0271 -1.83726,-0.0864 -2.63801,-0.17028 -0.80074,-0.0839 -1.52451,-0.19249 -2.1764,-0.31809 -0.32594,-0.0628 -0.63392,-0.12984 -0.9246,-0.20016 -0.29069,-0.0703 -0.56408,-0.14391 -0.82091,-0.21977 -0.25683,-0.0759 -0.49708,-0.154 -0.72155,-0.23342 -0.22448,-0.0794 -0.43316,-0.16013 -0.62694,-0.24116 -0.19377,-0.081 -0.37263,-0.16239 -0.53754,-0.24316 -0.16491,-0.0808 -0.31588,-0.16094 -0.45397,-0.23971 -0.13809,-0.0788 -0.26332,-0.15611 -0.37686,-0.23132 -0.11355,-0.0752 -0.21542,-0.14828 -0.3069,-0.21861 -0.0994,-0.0764 -0.19039,-0.15259 -0.27247,-0.22736 -0.0411,-0.0374 -0.0799,-0.0744 -0.11647,-0.11095 -0.0366,-0.0365 -0.071,-0.0726 -0.10315,-0.10794 -0.0322,-0.0354 -0.0622,-0.0701 -0.0901,-0.10415 -0.0279,-0.034 -0.0537,-0.0673 -0.0775,-0.0998 -0.0238,-0.0325 -0.0456,-0.0642 -0.0656,-0.095 -0.02,-0.0309 -0.0382,-0.0609 -0.0548,-0.0902 -0.0166,-0.0293 -0.0316,-0.0579 -0.0451,-0.0858 -0.0136,-0.028 -0.0258,-0.0553 -0.0368,-0.0823 -0.011,-0.027 -0.0208,-0.0535 -0.0295,-0.08 -0.009,-0.0265 -0.0165,-0.0529 -0.0233,-0.0796 -0.007,-0.0267 -0.0128,-0.0537 -0.0179,-0.0815 -0.005,-0.0278 -0.009,-0.0563 -0.0126,-0.0862 -0.003,-0.0298 -0.006,-0.0609 -0.007,-0.0938 -0.001,-0.0329 -0.002,-0.0676 -4.8e-4,-0.10463 0.002,-0.0609 0.007,-0.12803 0.0179,-0.20322 0.005,-0.0376 0.0121,-0.0772 0.0204,-0.11896 0.008,-0.0418 0.0182,-0.0857 0.03,-0.13192 0.0235,-0.0924 0.0546,-0.1941 0.0953,-0.3055 0.0407,-0.11139 0.0911,-0.23251 0.15338,-0.36329 0.0623,-0.13079 0.13633,-0.27122 0.22412,-0.42081 0.0878,-0.14959 0.18932,-0.30831 0.30617,-0.4754 0.11686,-0.16708 0.24905,-0.34252 0.39793,-0.52543 0.14889,-0.18292 0.31446,-0.37332 0.49789,-0.57032 0.15643,-0.16799 0.32583,-0.34079 0.50885,-0.51782 0.18301,-0.17703 0.37963,-0.35829 0.59043,-0.54326 0.21079,-0.18496 0.43576,-0.37362 0.67542,-0.56545 0.23966,-0.19182 0.49401,-0.38682 0.76352,-0.58447 0.53903,-0.39531 1.13874,-0.80123 1.80265,-1.21388 0.66391,-0.41264 1.392,-0.83201 2.1876,-1.25442 0.7956,-0.4224 1.65869,-0.84785 2.59251,-1.27275 0.93383,-0.42491 1.9384,-0.84928 3.01687,-1.26955 1.07847,-0.42028 2.23086,-0.83646 3.46021,-1.24491 1.22935,-0.40845 2.53566,-0.80917 3.92186,-1.19841 l 10e-6,-10e-6 c 0.67766,-0.19028 1.36073,-0.3867 2.04905,-0.58977 0.68832,-0.20307 1.3819,-0.41279 2.08073,-0.62971 0.69883,-0.21692 1.4029,-0.44105 2.11236,-0.67292 0.70945,-0.23188 1.42428,-0.47152 2.14473,-0.71947 0.72045,-0.24795 1.44651,-0.50421 2.17853,-0.76933 0.73202,-0.26512 1.47,-0.5391 2.21435,-0.82244 0.74434,-0.28335 1.49506,-0.57606 2.25262,-0.87861 0.75756,-0.30255 1.52196,-0.61494 2.29369,-0.93758 0.77174,-0.32264 1.55081,-0.65554 2.33773,-0.99904 0.78691,-0.3435 1.58166,-0.6976 2.38473,-1.06258 0.80307,-0.36497 1.61445,-0.74081 2.43456,-1.1277 0.82012,-0.38688 1.64897,-0.78482 2.48688,-1.19386 0.83791,-0.40905 1.68489,-0.82921 2.54114,-1.26043 0.85625,-0.43122 1.72178,-0.87351 2.59664,-1.32669 0.87486,-0.45317 1.75905,-0.91723 2.65245,-1.39184 0.89341,-0.47462 1.79602,-0.9598 2.70751,-1.45506 0.6988,-0.3797 1.38854,-0.75832 2.06941,-1.13591 -0.1022,-0.74402 -0.1872,-1.49353 -0.25406,-2.24828 -0.10187,-1.14992 -0.16485,-2.29376 -0.19039,-3.43067 -0.0255,-1.13691 -0.0136,-2.26689 0.034,-3.38906 0.0477,-1.12218 0.13116,-2.23653 0.24853,-3.34209 0.11738,-1.10556 0.26866,-2.20232 0.45172,-3.2892 0.18306,-1.08687 0.3979,-2.16386 0.64214,-3.22977 0.24425,-1.0659 0.51789,-2.12072 0.8183,-3.16314 0.3004,-1.04242 0.62757,-2.07245 0.97861,-3.08868 0.35103,-1.01624 0.72593,-2.01868 1.12155,-3.00585 0.39562,-0.98717 0.81196,-1.95907 1.24564,-2.91416 0.43369,-0.9551 0.88471,-1.89339 1.34949,-2.8133 0.46479,-0.91991 0.94332,-1.82144 1.43184,-2.703 0.48853,-0.88155 0.98703,-1.74313 1.49161,-2.58312 0.50458,-0.83999 1.01522,-1.65839 1.52791,-2.4536 0.51268,-0.79521 1.0274,-1.56723 1.54007,-2.31445 1.02533,-1.49444 2.04241,-2.88969 3.01832,-4.17313 0.56594,-0.74428 1.11304,-1.46702 1.6403,-2.1685 0.52726,-0.70148 1.03468,-1.3817 1.52149,-2.0407 0.48681,-0.65899 0.95301,-1.29677 1.39809,-1.91321 0.44507,-0.61643 0.86902,-1.21153 1.27157,-1.78504 0.40255,-0.57352 0.7837,-1.12546 1.14342,-1.6555 0.35972,-0.53004 0.69802,-1.03817 1.01511,-1.52404 0.3171,-0.48586 0.61299,-0.94945 0.88813,-1.39036 0.27515,-0.44091 0.52955,-0.85913 0.7639,-1.25425 0.23435,-0.39511 0.44865,-0.76712 0.64382,-1.11558 0.19516,-0.34847 0.3712,-0.67339 0.52924,-0.97435 0.15803,-0.30095 0.29807,-0.57794 0.42144,-0.83056 0.12337,-0.25261 0.23007,-0.48084 0.32164,-0.6843 0.0916,-0.20347 0.16799,-0.38216 0.23098,-0.53573 0.063,-0.15356 0.11256,-0.28199 0.15055,-0.38496 0.038,-0.10297 0.0644,-0.18048 0.0813,-0.23223 C 496.06406,489.88818 496.07143,489.86218 496.07143,489.86218 Z" style="fill:url(#linearGradient7330);fill-opacity:1;stroke:none" />
            <path inkscape:original-d="m 483.21429,581.46932 c 38.24231,11.12692 76.52693,-8.65656 83.21428,-49.10714 C 574.16612,485.5591 545.92889,460.23686 502.5,487.54075" inkscape:path-effect="#path-effect7273" sodipodi:nodetypes="csc" inkscape:connector-curvature="0" id="path7269" d="m 482.23648,584.82996 c 0,0 0.0234,0.007 0.0716,0.0208 0.0482,0.014 0.12132,0.0351 0.22072,0.0637 0.0994,0.0285 0.22511,0.0644 0.37861,0.1077 0.15349,0.0433 0.33477,0.0939 0.54529,0.15173 0.21052,0.0578 0.45029,0.12277 0.72077,0.19443 0.27047,0.0716 0.57166,0.15 0.90499,0.23429 0.33334,0.0843 0.69883,0.1745 1.09789,0.26959 0.39907,0.0951 0.8317,0.19502 1.2993,0.2984 0.4676,0.10337 0.97015,0.21018 1.50899,0.3186 0.53884,0.10842 1.11396,0.21845 1.7266,0.32784 0.61264,0.1094 1.26281,0.21816 1.95162,0.32359 0.68882,0.10543 1.41628,0.20752 2.18336,0.30308 0.76708,0.0956 1.57377,0.18458 2.42085,0.26335 0.84707,0.0788 1.73453,0.14727 2.66286,0.20123 0.92834,0.054 1.89755,0.0934 2.90781,0.11337 1.01025,0.02 2.06155,0.0206 3.15363,-0.004 0.58244,-0.013 1.19994,-0.0336 1.84954,-0.0643 0.6496,-0.0307 1.33131,-0.0716 2.04207,-0.12515 0.71075,-0.0535 1.45055,-0.11972 2.21623,-0.20105 0.76567,-0.0813 1.55722,-0.17779 2.37137,-0.29176 0.81415,-0.11397 1.6509,-0.24545 2.50687,-0.39665 0.85597,-0.1512 1.73116,-0.32212 2.62211,-0.51477 0.89094,-0.19265 1.79765,-0.40702 2.71657,-0.64488 0.91893,-0.23786 1.85007,-0.4992 2.78985,-0.7855 0.93978,-0.2863 1.88819,-0.59756 2.84163,-0.93494 0.95344,-0.33737 1.9119,-0.70086 2.87179,-1.09127 0.95988,-0.39041 1.92119,-0.80775 2.88035,-1.25246 0.95916,-0.44471 1.91617,-0.9168 2.86756,-1.41633 0.95138,-0.49952 1.89713,-1.02649 2.83389,-1.58057 0.93675,-0.55408 1.8645,-1.13528 2.78004,-1.74287 0.91553,-0.60759 1.81886,-1.24157 2.70695,-1.90081 0.8881,-0.65925 1.76097,-1.34376 2.61585,-2.05202 0.85488,-0.70827 1.69176,-1.44028 2.50817,-2.19414 0.8164,-0.75385 1.61232,-1.52956 2.38559,-2.32484 0.77327,-0.79527 1.52389,-1.61012 2.25005,-2.44192 0.72616,-0.8318 1.42786,-1.68055 2.10366,-2.54329 0.67581,-0.86274 1.32571,-1.73948 1.9487,-2.62696 0.62298,-0.88748 1.21904,-1.78571 1.78757,-2.69116 0.56852,-0.90545 1.10951,-1.81812 1.62278,-2.73425 0.51327,-0.91614 0.99881,-1.83573 1.45687,-2.75484 0.45806,-0.9191 0.88862,-1.83771 1.29234,-2.7517 0.40372,-0.91399 0.78059,-1.82336 1.13164,-2.72386 0.35105,-0.90049 0.67628,-1.79211 0.97707,-2.6705 0.30079,-0.87839 0.57715,-1.74356 0.83075,-2.59109 0.2536,-0.84753 0.48446,-1.67743 0.69452,-2.48526 0.21005,-0.80782 0.39931,-1.59358 0.56992,-2.35285 0.1706,-0.75927 0.32256,-1.49205 0.45813,-2.19395 0.13557,-0.70191 0.25476,-1.37294 0.35988,-2.00879 0,0 0,0 0,0 0,-1e-5 0,-2e-5 0,-3e-5 0.14508,-0.87756 0.28901,-1.81486 0.42549,-2.80357 0.13648,-0.9887 0.2655,-2.02881 0.3808,-3.11173 0.1153,-1.08293 0.21686,-2.20868 0.29864,-3.36852 0.0818,-1.15985 0.14376,-2.35378 0.18028,-3.57303 0.0365,-1.21924 0.0476,-2.46379 0.028,-3.7249 -0.01,-0.63055 -0.0272,-1.26524 -0.0529,-1.90299 -0.0257,-0.63774 -0.0596,-1.27855 -0.10235,-1.92134 -0.0427,-0.64278 -0.0943,-1.28755 -0.15508,-1.93324 -0.0608,-0.6457 -0.13096,-1.29231 -0.21086,-1.9388 -0.0799,-0.64649 -0.16957,-1.29285 -0.26942,-1.93806 -0.0999,-0.64521 -0.20989,-1.28927 -0.33047,-1.93115 -0.12059,-0.64188 -0.25173,-1.2816 -0.39374,-1.91815 -0.14201,-0.63655 -0.29489,-1.26993 -0.45889,-1.89918 -0.16401,-0.62924 -0.33915,-1.25434 -0.52563,-1.87435 -0.18648,-0.62001 -0.38429,-1.23491 -0.59359,-1.84379 -0.20929,-0.60888 -0.43007,-1.21172 -0.66242,-1.80762 -0.23235,-0.5959 -0.47627,-1.18485 -0.73177,-1.76597 -0.2555,-0.58112 -0.52259,-1.15441 -0.80122,-1.71901 -0.27863,-0.56459 -0.56879,-1.12049 -0.87037,-1.66687 -0.30158,-0.54638 -0.61457,-1.08323 -0.93878,-1.60976 -0.32421,-0.52653 -0.65963,-1.04275 -1.006,-1.54788 -0.34637,-0.50514 -0.70367,-0.9992 -1.07156,-1.48148 -0.3679,-0.48228 -0.74637,-0.95277 -1.13498,-1.41083 -0.38862,-0.45805 -0.78738,-0.90367 -1.19575,-1.33626 -0.40837,-0.43259 -0.82636,-0.85215 -1.25336,-1.25817 -0.42699,-0.40602 -0.86299,-0.79849 -1.3073,-1.17698 -0.4443,-0.3785 -0.89692,-0.74301 -1.35706,-1.0932 -0.601,-0.4574 -1.21485,-0.89036 -1.83961,-1.2984 -0.62476,-0.40804 -1.26042,-0.79116 -1.90487,-1.14923 -0.64446,-0.35807 -1.29771,-0.69109 -1.95754,-0.99927 -0.65982,-0.30817 -1.32623,-0.59151 -1.99696,-0.85055 -0.67072,-0.25903 -1.34575,-0.49376 -2.02282,-0.70504 -0.67707,-0.21128 -1.35618,-0.3991 -2.03505,-0.5646 -0.67887,-0.16551 -1.35751,-0.30869 -2.03368,-0.43094 -0.67617,-0.12226 -1.34988,-0.22358 -2.01892,-0.30558 -0.66904,-0.082 -1.33342,-0.14469 -1.99098,-0.18986 -0.65757,-0.0452 -1.30833,-0.0728 -1.95017,-0.0849 -0.64185,-0.0121 -1.27478,-0.009 -1.89674,0.008 -0.62195,0.0169 -1.23294,0.0472 -1.83095,0.0888 -0.598,0.0416 -1.18302,0.0945 -1.75308,0.15636 -0.57006,0.0619 -1.12517,0.13276 -1.66338,0.21036 -0.53821,0.0776 -1.05953,0.1619 -1.56206,0.25063 -0.50254,0.0887 -0.98629,0.18185 -1.44941,0.27713 -0.5495,0.11305 -1.09001,0.23673 -1.62103,0.36967 -0.53103,0.13293 -1.05258,0.27512 -1.56427,0.42524 -0.51168,0.15012 -1.01351,0.30818 -1.50518,0.47293 -0.49168,0.16475 -0.9732,0.3362 -1.44437,0.51317 -0.47116,0.17697 -0.93196,0.35946 -1.38226,0.54638 -0.4503,0.18692 -0.89009,0.37826 -1.3193,0.57301 -0.42921,0.19474 -0.84784,0.39289 -1.25585,0.59347 -0.40801,0.20059 -0.80541,0.40361 -1.19221,0.60819 -0.3868,0.20457 -0.76301,0.41069 -1.12867,0.61752 -0.36567,0.20684 -0.72079,0.41439 -1.06547,0.62189 -0.34468,0.2075 -0.6789,0.41495 -1.00281,0.62162 -0.3239,0.20668 -0.63749,0.41259 -0.94089,0.61707 -0.30341,0.20447 -0.59665,0.40753 -0.87988,0.60854 -0.28324,0.20102 -0.55648,0.4 -0.81992,0.59638 -0.26344,0.19639 -0.51708,0.39018 -0.76114,0.58086 -0.24405,0.19069 -0.47853,0.37827 -0.70365,0.56227 -0.45025,0.368 -0.86308,0.72167 -1.24054,1.05774 -0.37746,0.33607 -0.71955,0.65455 -1.0285,0.95279 -0.30895,0.29823 -0.58475,0.57622 -0.82978,0.83183 -0.24502,0.25561 -0.45927,0.48884 -0.6452,0.69801 -0.18594,0.20917 -0.34355,0.39428 -0.47537,0.55402 -0.13183,0.15975 -0.23785,0.29414 -0.32064,0.40218 -0.0828,0.10805 -0.14233,0.18976 -0.18119,0.24441 -0.0389,0.0546 -0.057,0.0822 -0.057,0.0822 0,0 0.0327,-0.004 0.0988,-0.0156 0.0661,-0.0112 0.16546,-0.0291 0.2986,-0.0558 0.13314,-0.0267 0.30002,-0.062 0.50087,-0.10775 0.20086,-0.0457 0.43568,-0.10173 0.70451,-0.1693 0.26883,-0.0676 0.57167,-0.14665 0.90836,-0.23805 0.3367,-0.0914 0.70724,-0.1951 1.11129,-0.3114 0.40405,-0.1163 0.84159,-0.24521 1.31206,-0.38652 0.47047,-0.14131 0.97386,-0.29503 1.5094,-0.46044 0.53553,-0.1654 1.10319,-0.34249 1.70198,-0.53 0.59878,-0.1875 1.22867,-0.38543 1.88843,-0.59195 0.65975,-0.20653 1.34936,-0.42165 2.06734,-0.64299 0.71798,-0.22134 1.46433,-0.44889 2.23734,-0.67975 0.77301,-0.23085 1.57268,-0.465 2.39711,-0.69902 0.82444,-0.23401 1.67364,-0.46788 2.54561,-0.6977 0.87196,-0.22982 1.76669,-0.45558 2.6822,-0.67294 0.91551,-0.21736 1.85179,-0.42631 2.80709,-0.62205 0.80513,-0.16497 1.67704,-0.32146 2.59973,-0.45404 0.46134,-0.0663 0.93536,-0.12661 1.42004,-0.17911 0.48467,-0.0525 0.97999,-0.0972 1.48394,-0.13228 0.50395,-0.0351 1.01651,-0.0606 1.5357,-0.075 0.51918,-0.0143 1.04498,-0.0174 1.57543,-0.008 0.53046,0.01 1.06557,0.0319 1.60345,0.0683 0.53788,0.0364 1.07853,0.0868 1.62014,0.15243 0.54162,0.0657 1.0842,0.14655 1.62605,0.24371 0.54186,0.0972 1.08299,0.21058 1.62184,0.34115 0.53884,0.13056 1.0754,0.27827 1.60825,0.44383 0.53284,0.16557 1.06197,0.349 1.58611,0.55089 0.52414,0.20189 1.04328,0.42224 1.55628,0.66151 0.513,0.23928 1.01985,0.49748 1.51953,0.77497 0.49968,0.2775 0.99219,0.57428 1.47659,0.89063 0.48439,0.31634 0.96068,0.65224 1.42796,1.00787 0.35776,0.27227 0.71023,0.55611 1.05703,0.85154 0.3468,0.29543 0.68792,0.60246 1.02295,0.92105 0.33504,0.3186 0.66399,0.64877 0.98647,0.99042 0.32247,0.34166 0.63847,0.69481 0.9476,1.0593 0.30913,0.36449 0.6114,0.74032 0.90643,1.12727 0.29502,0.38695 0.58281,0.78502 0.863,1.19392 0.28019,0.40889 0.55278,0.82861 0.81745,1.25878 0.26466,0.43017 0.5214,0.87079 0.7699,1.3214 0.24851,0.45061 0.48879,0.91121 0.72057,1.38128 0.23179,0.47006 0.45508,0.94959 0.66965,1.43797 0.21457,0.48838 0.42043,0.98561 0.61739,1.49101 0.19696,0.5054 0.38503,1.01896 0.56408,1.53995 0.17905,0.52098 0.34908,1.04938 0.51003,1.58437 0.16094,0.535 0.3128,1.0766 0.45556,1.62392 0.14276,0.54732 0.27642,1.10037 0.40103,1.65822 0.12461,0.55785 0.24018,1.1205 0.34681,1.68698 0.10663,0.56647 0.20432,1.13678 0.29326,1.70991 0.0889,0.57312 0.16911,1.14907 0.24076,1.72679 0.0717,0.57772 0.13479,1.15722 0.18971,1.73743 0.0549,0.5802 0.1016,1.16111 0.14043,1.74165 0.0388,0.58053 0.0698,1.16068 0.0933,1.73934 0.0235,0.57865 0.0396,1.15583 0.0487,1.73039 0.009,0.57456 0.0112,1.14652 0.007,1.71475 -0.004,0.56822 -0.0151,1.13272 -0.0317,1.69235 -0.0333,1.11927 -0.0902,2.21909 -0.16563,3.29045 -0.0754,1.07136 -0.16943,2.11425 -0.27645,3.11976 -0.10702,1.0055 -0.22707,1.97361 -0.35434,2.89558 -0.12727,0.92197 -0.26173,1.7978 -0.3975,2.61901 0,10e-6 0,10e-6 0,2e-5 0,0 0,0 0,0 -0.0955,0.57767 -0.20369,1.18672 -0.3266,1.82306 -0.12291,0.63635 -0.26054,1.29999 -0.41487,1.98681 -0.15433,0.68682 -0.32536,1.39681 -0.51494,2.12584 -0.18958,0.72904 -0.39772,1.47712 -0.62607,2.24015 -0.22836,0.76303 -0.47694,1.54102 -0.74717,2.32995 -0.27023,0.78893 -0.56212,1.5888 -0.87682,2.3957 -0.3147,0.8069 -0.65222,1.62083 -1.0134,2.43802 -0.36118,0.81719 -0.74603,1.63764 -1.15507,2.45774 -0.40903,0.8201 -0.84226,1.63985 -1.29985,2.45584 -0.4576,0.81598 -0.93957,1.62819 -1.44573,2.43343 -0.50616,0.80523 -1.03652,1.60348 -1.59055,2.39178 -0.55403,0.78829 -1.13174,1.56662 -1.73225,2.33225 -0.60051,0.76563 -1.22382,1.51857 -1.86874,2.25633 -0.64491,0.73777 -1.31142,1.46036 -1.998,2.16558 -0.68658,0.70523 -1.39323,1.39308 -2.11813,2.06166 -0.7249,0.66857 -1.46805,1.31787 -2.22734,1.94629 -0.75929,0.62841 -1.53473,1.23594 -2.32396,1.82129 -0.78922,0.58535 -1.59224,1.14852 -2.40648,1.68854 -0.81423,0.54001 -1.63969,1.05687 -2.47359,1.54992 -0.83391,0.49305 -1.67627,0.96229 -2.52416,1.40741 -0.84789,0.44512 -1.7013,0.86612 -2.5572,1.26299 -0.8559,0.39688 -1.71427,0.76964 -2.57198,1.11862 -0.85771,0.34898 -1.71475,0.67418 -2.56792,0.97626 -0.85317,0.30207 -1.70246,0.58102 -2.54465,0.8378 -0.84218,0.25679 -1.67725,0.4914 -2.50196,0.7051 -0.82472,0.2137 -1.63907,0.40648 -2.43985,0.57985 -0.80077,0.17337 -1.58797,0.32733 -2.3584,0.46362 -0.77044,0.13629 -1.52412,0.25492 -2.25791,0.35782 -0.7338,0.1029 -1.44772,0.19008 -2.13872,0.26363 -0.691,0.0735 -1.35908,0.13346 -2.00128,0.18195 -0.64221,0.0485 -1.25854,0.0856 -1.84614,0.11347 -0.5876,0.0279 -1.14646,0.0466 -1.67383,0.0585 -0.98881,0.0222 -1.94157,0.0218 -2.85782,0.004 -0.91626,-0.018 -1.79602,-0.0537 -2.63925,-0.10268 -0.84323,-0.0489 -1.64994,-0.11117 -2.42041,-0.18277 -0.77047,-0.0716 -1.5047,-0.1526 -2.20326,-0.2396 -0.69856,-0.087 -1.36144,-0.18001 -1.98941,-0.27611 -0.62797,-0.0961 -1.22102,-0.19531 -1.78008,-0.29513 -0.55907,-0.0998 -1.08414,-0.20027 -1.57626,-0.29929 -0.49213,-0.099 -0.95131,-0.1966 -1.37869,-0.29108 -0.42737,-0.0945 -0.82294,-0.18586 -1.18791,-0.27282 -0.36497,-0.087 -0.69933,-0.1695 -1.00435,-0.24662 -0.30501,-0.0771 -0.58068,-0.14884 -0.82829,-0.21444 -0.24761,-0.0656 -0.46715,-0.12508 -0.65994,-0.17802 -0.19279,-0.0529 -0.35882,-0.0993 -0.49942,-0.13896 -0.14061,-0.0396 -0.25578,-0.0725 -0.34684,-0.0987 -0.0911,-0.0261 -0.15803,-0.0455 -0.20223,-0.0584 -0.0442,-0.0128 -0.0656,-0.0191 -0.0656,-0.0191 L 482.23648,584.82996 Z" style="fill:url(#linearGradient7332);fill-opacity:1;stroke:none" />
            <g inkscape:expanded="true" id="g7315">
                <path style="fill:url(#linearGradient7311);fill-opacity:1;stroke:url(#linearGradient7309);stroke-width:7;stroke-linecap:butt;stroke-linejoin:miter;stroke-miterlimit:4;stroke-opacity:1;stroke-dasharray:none" d="m 526.39259,561.25243 c -12.16621,4.14316 -24.69806,-0.33608 -27.99066,-10.00466 -3.2926,-9.66858 3.90089,-20.8652 16.0671,-25.00836 12.16622,-4.14316 24.69806,0.33607 27.99066,10.00465 3.2926,9.66858 -3.90089,20.86521 -16.0671,25.00837" id="path7307" inkscape:connector-curvature="0" inkscape:path-effect="#path-effect7313" inkscape:original-d="m 501.2882,556.25101 2.27284,-23.23351 22.4759,-8.20748 17.17259,17.42513 -18.18274,19.44543" sodipodi:nodetypes="ccccc" />
                <path style="fill:url(#linearGradient7293);fill-opacity:1;stroke:none" d="m 522.72269,551.97317 c -1.35125,3.39388 -5.06304,5.10348 -8.29052,3.81849 -3.22748,-1.28499 -4.74846,-5.07797 -3.39722,-8.47186 1.35124,-3.39388 5.06303,-5.10348 8.29051,-3.81849 3.22748,1.28499 4.74847,5.07797 3.39723,8.47186" id="path7289" inkscape:connector-curvature="0" inkscape:path-effect="#path-effect7291" inkscape:original-d="m 514.04138,555.61967 -3.283,-7.44987 3.283,-4.29315 7.70241,1.38896 0.63135,7.44987" sodipodi:nodetypes="ccccc" />
            </g>
        </g>
    </g>
</svg>
